<?xml version="1.0" encoding="UTF-8" ?>
<!DOCTYPE svg PUBLIC "-//W3C//DTD SVG 1.1//EN" "http://www.w3.org/Graphics/SVG/1.1/DTD/svg11.dtd">
<svg width="2342pt" height="601pt" viewBox="0 0 2342 601" version="1.1" xmlns="http://www.w3.org/2000/svg">
<g id="#ffffffff">
<path fill="#ffffff" opacity="1.00" d=" M 257.27 38.24 C 266.94 30.18 279.40 25.54 292.01 25.52 C 302.50 25.50 312.73 28.13 322.97 30.08 C 328.54 31.56 334.65 32.84 338.62 37.39 C 349.26 47.23 346.35 66.89 333.59 73.57 C 329.69 75.44 325.35 76.66 320.99 76.43 C 310.67 75.10 301.46 69.98 291.86 66.39 C 283.20 63.61 273.39 68.91 270.30 77.31 C 260.91 100.50 251.24 123.57 241.74 146.71 C 241.49 148.04 239.80 149.51 240.93 150.81 C 246.03 151.00 251.20 151.91 255.84 154.11 C 272.69 161.35 289.27 169.23 306.09 176.53 C 308.49 172.44 309.60 167.75 311.59 163.47 C 316.02 152.03 320.51 140.61 325.19 129.28 C 328.85 119.98 333.54 110.79 340.68 103.68 C 348.51 96.03 358.56 90.43 369.41 88.55 C 381.06 86.53 393.28 87.91 404.03 92.96 C 411.67 96.65 420.19 98.77 427.01 103.99 C 437.39 112.46 437.00 130.33 426.63 138.66 C 422.18 142.79 415.83 144.11 409.93 144.01 C 402.84 143.73 397.26 138.94 391.37 135.61 C 385.70 132.16 380.72 127.07 374.02 125.70 C 367.48 125.26 360.63 128.46 357.05 134.02 C 351.45 142.40 345.56 150.58 340.06 159.02 C 335.56 166.76 330.30 174.01 325.51 181.56 C 324.95 182.54 323.97 183.50 324.25 184.73 C 339.96 191.67 355.53 198.91 371.29 205.73 C 387.85 213.69 404.97 220.37 421.49 228.43 C 430.92 232.30 440.07 237.37 447.09 244.91 C 456.07 253.14 461.85 264.35 465.00 276.01 C 466.85 280.10 467.23 284.61 467.07 289.05 C 468.73 300.47 464.66 311.52 462.34 322.53 C 459.69 329.32 454.97 335.02 451.18 341.18 C 448.93 344.21 446.41 347.15 443.23 349.24 C 439.46 351.73 436.14 354.88 432.21 357.15 C 423.35 362.51 413.24 365.73 402.94 366.61 C 398.31 366.69 393.69 366.67 389.07 366.59 C 377.12 365.66 366.16 360.37 355.38 355.54 C 336.22 347.00 317.08 338.41 297.92 329.89 C 297.54 329.97 296.78 330.15 296.41 330.23 C 295.19 338.56 291.96 346.48 290.59 354.81 C 288.80 360.71 287.83 366.83 285.87 372.69 C 285.40 374.36 284.72 376.45 286.17 377.86 C 291.21 384.66 292.46 393.67 290.92 401.86 C 289.75 409.22 285.99 416.55 279.68 420.76 C 277.85 422.11 275.51 422.40 273.60 423.58 C 272.87 428.30 270.49 432.75 270.36 437.54 C 276.87 441.40 283.67 444.83 290.82 447.34 C 299.17 451.13 308.35 452.19 317.30 453.70 C 333.44 455.89 350.35 451.89 365.91 457.95 C 377.90 461.40 387.87 469.99 394.74 480.22 C 399.91 488.65 405.26 499.22 401.28 509.16 C 400.57 512.09 397.54 513.41 396.15 515.84 C 398.80 515.89 400.84 517.42 402.88 518.83 C 407.00 512.49 415.53 514.39 421.93 513.16 C 425.33 512.10 427.95 514.65 430.77 515.84 C 432.38 513.24 435.09 511.48 438.20 511.46 C 443.43 511.31 448.69 509.98 453.91 510.79 C 457.63 511.71 458.42 515.66 460.01 518.43 C 463.55 518.65 467.98 517.21 470.61 520.38 C 475.22 524.97 473.59 532.06 474.22 537.90 C 474.84 541.30 474.36 544.76 474.81 548.17 C 485.86 548.76 496.94 548.28 508.00 548.34 C 524.61 548.37 541.22 548.30 557.83 548.37 C 560.78 548.38 561.72 551.65 561.92 554.05 C 559.69 550.82 555.34 551.88 551.99 551.69 C 525.15 551.53 498.31 552.06 471.48 551.58 C 470.62 547.13 471.29 542.48 470.68 537.97 C 470.30 532.68 471.80 525.60 466.79 522.06 C 463.31 521.49 459.76 522.33 456.28 521.75 C 455.87 518.83 455.57 514.59 451.90 514.06 C 447.58 513.92 443.31 514.78 439.01 514.99 C 436.71 514.99 434.30 516.14 433.52 518.42 C 433.32 520.31 433.26 522.20 433.07 524.10 C 431.68 524.44 429.61 524.89 428.82 523.29 C 428.12 521.36 428.25 518.84 426.38 517.58 C 424.52 516.13 422.12 516.91 420.00 517.01 C 416.01 517.45 411.80 516.97 408.12 518.91 C 404.91 520.07 406.13 524.27 405.70 526.91 C 404.34 527.70 402.78 527.29 401.44 526.74 C 401.05 524.65 401.19 522.05 399.24 520.68 C 396.60 518.41 393.06 519.91 390.01 520.01 C 386.29 520.52 381.64 519.69 378.95 522.94 C 378.03 525.06 378.45 527.54 377.81 529.77 C 376.63 529.87 375.45 529.89 374.28 529.82 C 373.19 527.31 373.34 523.81 370.53 522.47 C 365.14 521.93 359.82 523.50 354.43 523.53 C 350.25 524.77 351.14 529.55 349.70 532.68 C 349.11 532.69 347.94 532.73 347.35 532.75 C 345.82 530.68 346.40 527.46 344.06 525.95 C 342.33 524.50 339.99 525.07 337.95 525.14 C 333.86 525.54 329.62 525.45 325.68 526.71 C 322.12 528.35 323.96 532.76 322.90 535.70 C 318.98 536.72 313.64 535.04 311.12 539.08 C 308.87 542.93 311.39 547.63 309.86 551.70 C 302.98 551.88 296.08 551.93 289.20 551.67 C 288.49 548.66 288.34 545.54 287.38 542.60 C 284.83 534.15 277.60 527.08 268.92 525.22 C 263.65 523.85 258.20 524.79 252.87 524.12 C 252.15 522.11 253.97 520.40 254.91 518.80 C 260.44 509.99 263.10 499.31 261.88 488.93 C 261.86 487.38 261.21 485.61 262.23 484.24 C 263.77 484.30 265.27 484.65 266.70 485.26 C 278.65 489.81 291.21 492.70 303.93 493.97 C 313.86 495.61 323.91 494.06 333.88 494.03 C 336.59 499.64 340.61 505.26 346.93 507.05 C 350.02 508.72 354.41 507.22 356.70 510.32 C 359.88 514.50 365.84 515.36 370.53 513.46 C 373.02 512.09 374.48 509.45 376.98 508.08 C 380.18 510.21 382.78 513.85 386.98 513.92 C 392.23 514.88 397.42 510.83 398.71 505.86 C 399.92 499.69 398.02 493.38 394.95 488.04 C 388.21 474.57 375.84 463.61 361.00 460.14 C 353.89 457.87 346.36 458.03 338.99 457.97 C 318.13 458.76 296.79 455.46 278.04 445.94 C 274.21 443.79 269.69 442.31 266.85 438.82 C 266.03 435.41 267.86 432.07 268.63 428.79 C 269.63 426.00 269.56 422.71 271.38 420.28 C 274.38 419.14 277.66 418.37 279.96 415.95 C 288.46 407.35 290.70 392.93 284.66 382.36 C 283.63 380.26 281.23 378.57 281.64 376.00 C 282.15 371.81 283.84 367.89 284.65 363.76 C 287.96 351.25 290.36 338.48 294.29 326.16 C 295.79 324.88 297.86 325.93 299.46 326.49 C 320.50 336.19 341.84 345.27 362.87 355.00 C 369.69 357.75 376.46 360.91 383.76 362.22 C 400.89 365.19 419.46 362.07 433.67 351.70 C 438.80 347.54 445.05 344.40 448.55 338.55 C 452.03 332.35 457.28 326.99 459.01 319.93 C 460.97 312.73 462.57 305.41 463.78 298.05 C 463.81 292.64 463.94 287.13 463.10 281.78 C 461.17 276.15 459.86 270.26 457.07 264.96 C 452.69 255.33 445.31 247.37 437.03 240.94 C 429.02 234.96 419.50 231.77 410.65 227.36 C 385.30 216.07 359.94 204.80 334.64 193.37 C 329.93 190.99 324.75 189.48 320.33 186.56 C 319.38 184.79 320.19 182.69 321.31 181.21 C 331.76 165.66 341.40 149.58 352.41 134.40 C 356.14 127.55 363.15 122.44 371.10 122.14 C 377.85 121.37 383.50 125.74 388.74 129.33 C 393.42 132.76 398.45 135.69 403.50 138.54 C 411.06 142.51 421.20 140.16 426.48 133.49 C 433.21 126.21 432.34 113.55 424.93 107.06 C 421.14 103.78 416.22 102.43 411.82 100.21 C 402.00 96.07 391.99 90.96 381.05 91.31 C 368.29 90.63 355.57 95.62 345.95 103.87 C 337.76 110.56 332.85 120.28 328.85 129.86 C 322.26 146.04 315.92 162.31 309.54 178.55 C 309.02 181.10 306.01 180.53 304.24 179.83 C 286.76 172.01 269.37 163.97 251.82 156.32 C 247.13 154.43 242.01 154.55 237.10 153.74 C 235.86 152.22 236.71 149.96 237.17 148.26 C 245.62 127.42 254.55 106.77 262.84 85.86 C 265.39 79.92 267.26 73.52 271.47 68.48 C 277.23 62.91 286.07 60.59 293.73 63.23 C 299.87 65.72 305.99 68.28 312.15 70.71 C 317.45 72.58 323.41 73.94 328.84 71.74 C 337.38 68.77 342.78 59.31 341.47 50.44 C 340.43 44.59 336.72 39.27 331.40 36.56 C 324.87 33.58 317.66 32.84 310.73 31.32 C 303.21 29.97 295.58 28.43 287.91 29.20 C 271.90 30.64 257.19 40.14 248.51 53.55 C 239.97 65.66 239.05 80.89 234.84 94.68 C 230.24 115.03 225.22 135.28 220.74 155.65 C 220.56 156.74 219.99 157.55 219.04 158.06 C 210.02 162.48 202.26 169.69 197.73 178.71 C 190.79 193.18 184.73 208.06 177.64 222.46 C 165.44 250.74 152.43 278.66 139.75 306.74 C 130.44 326.57 121.89 346.74 112.56 366.56 C 103.99 386.20 94.88 405.60 86.35 425.26 C 82.07 436.32 79.07 447.99 78.64 459.89 C 73.27 461.72 67.96 458.16 63.57 455.40 C 50.13 444.79 45.09 426.77 45.69 410.24 C 45.30 410.21 44.51 410.14 44.12 410.10 C 42.75 412.43 42.38 415.15 41.83 417.76 C 39.48 431.95 40.60 447.07 47.00 460.11 C 53.46 473.27 64.85 484.08 78.54 489.46 C 80.93 490.14 81.25 492.90 82.13 494.85 C 86.89 509.63 96.99 522.84 110.67 530.39 C 111.88 531.27 114.27 531.88 113.71 533.85 C 112.66 537.18 110.58 540.32 110.91 543.97 C 110.91 546.47 112.33 548.97 111.52 551.45 C 110.04 551.73 108.56 551.92 107.05 551.87 C 86.68 551.74 66.32 551.90 45.95 551.81 C 44.28 551.86 42.23 551.83 41.14 553.35 C 40.48 555.34 41.95 557.92 44.22 557.61 C 134.81 557.69 225.41 557.60 316.00 557.65 C 397.19 557.53 478.39 557.81 559.57 557.58 C 560.32 556.69 561.14 555.86 561.76 554.88 C 561.57 556.87 561.57 559.38 559.62 560.55 C 557.53 561.42 555.19 561.00 552.99 561.11 C 383.98 561.09 214.98 561.08 45.98 561.11 C 44.17 561.05 42.24 561.22 40.59 560.32 C 36.57 558.29 36.17 551.28 40.43 549.29 C 41.56 548.63 42.86 548.38 44.15 548.37 C 65.20 548.28 86.26 548.47 107.31 548.26 C 107.72 545.42 106.92 542.48 107.77 539.70 C 108.34 537.82 109.11 536.01 109.70 534.15 C 98.59 528.04 89.38 518.65 83.57 507.37 C 80.87 503.01 79.63 498.01 77.58 493.36 C 74.68 491.50 71.29 490.43 68.35 488.58 C 55.53 480.78 45.30 468.53 40.74 454.16 C 36.54 442.01 36.29 428.77 38.46 416.18 C 39.19 412.98 39.65 409.48 41.83 406.88 C 44.37 404.76 48.64 406.83 48.92 410.03 C 49.10 417.20 50.03 424.36 51.82 431.31 C 55.49 442.43 63.12 453.84 75.11 456.82 C 76.45 442.55 80.36 428.53 86.64 415.64 C 113.92 354.16 142.12 293.07 169.69 231.70 C 177.14 214.60 185.21 197.77 192.71 180.68 C 196.85 170.68 204.44 162.25 213.70 156.73 C 214.89 155.92 216.48 155.58 217.36 154.38 C 223.68 125.64 230.67 97.04 237.65 68.44 C 240.79 56.62 248.06 46.17 257.27 38.24 M 265.86 489.13 C 265.12 493.43 266.25 497.92 265.08 502.20 C 263.90 508.82 261.30 515.07 258.06 520.94 C 264.38 520.85 271.04 521.08 276.71 524.24 C 285.51 528.78 291.43 538.17 292.03 548.02 C 296.90 548.53 302.06 548.62 306.91 548.00 C 306.42 543.73 305.82 538.57 309.39 535.39 C 312.01 532.22 316.58 533.65 319.81 531.91 C 318.93 526.90 323.01 522.35 328.01 522.41 C 334.64 522.50 342.40 519.01 348.01 524.06 C 349.83 522.45 351.45 520.27 354.11 520.11 C 359.41 519.72 364.69 518.64 370.02 518.94 C 371.98 518.90 373.52 520.24 375.05 521.27 C 376.71 520.68 377.25 518.53 379.08 518.11 C 380.14 517.30 382.31 517.72 382.70 516.29 C 380.50 515.81 378.95 514.09 377.00 513.15 C 375.45 513.75 374.53 515.36 373.03 516.10 C 367.40 519.24 359.69 518.65 355.05 513.99 C 352.87 510.86 348.65 511.87 345.56 510.42 C 339.63 508.70 335.04 504.08 332.25 498.71 C 331.61 496.93 329.44 497.71 328.07 497.67 C 306.99 499.72 285.82 495.73 265.86 489.13 Z" />
<path fill="#ffffff" opacity="1.00" d=" M 202.73 183.70 C 209.36 167.72 227.84 157.79 244.81 161.33 C 252.61 162.36 258.96 167.35 266.25 169.83 C 316.82 192.55 367.46 215.36 418.21 237.83 C 418.41 238.12 418.82 238.69 419.03 238.98 C 415.84 248.08 410.92 256.44 407.38 265.41 C 402.37 276.43 397.51 287.52 392.55 298.56 C 384.41 315.85 377.25 333.60 368.88 350.77 C 348.33 341.31 327.64 332.20 307.01 322.98 C 297.21 318.88 287.81 313.77 277.85 310.13 C 275.12 309.20 272.88 312.42 273.93 314.84 C 274.57 316.60 276.46 317.22 278.01 317.96 C 281.32 319.22 284.34 321.16 287.74 322.20 C 288.04 324.17 287.45 326.10 286.98 327.99 C 284.61 336.16 282.75 344.48 280.61 352.71 C 279.59 352.89 278.64 352.73 277.75 352.23 C 258.73 343.95 239.91 335.23 220.84 327.11 C 206.42 320.02 191.45 314.12 176.94 307.21 C 168.69 303.79 160.69 299.78 152.34 296.61 C 152.36 296.27 152.41 295.58 152.43 295.24 C 169.03 257.98 185.94 220.87 202.73 183.70 M 269.23 203.19 C 250.75 217.46 241.81 242.29 244.87 265.15 C 246.27 268.80 246.70 272.81 248.79 276.20 C 252.40 283.16 260.17 287.70 268.03 287.17 C 277.76 286.10 286.73 280.26 292.47 272.48 C 292.78 272.42 293.42 272.30 293.73 272.24 C 293.37 279.83 294.15 288.01 298.60 294.41 C 301.67 298.76 306.46 302.42 311.99 302.41 C 319.65 303.04 326.38 298.62 332.07 294.05 C 345.58 281.21 353.43 262.64 353.35 244.02 C 353.04 235.22 350.80 225.22 342.99 220.01 C 339.04 216.98 333.88 217.07 329.17 217.46 C 320.98 218.99 314.60 224.91 309.21 230.91 C 310.05 219.88 307.19 206.94 297.40 200.49 C 288.76 194.64 277.06 197.09 269.23 203.19 M 351.32 299.35 C 347.30 300.29 346.31 306.05 349.65 308.40 C 352.83 311.73 358.80 308.34 358.35 303.98 C 358.41 300.48 354.42 298.37 351.32 299.35 M 336.40 316.62 C 338.10 318.18 340.49 317.73 342.57 317.58 C 343.89 316.04 345.56 314.25 345.03 312.03 C 344.96 309.14 342.05 306.63 339.17 307.31 C 334.64 307.40 333.01 314.00 336.40 316.62 M 364.36 309.27 C 361.18 310.68 360.73 315.47 363.24 317.74 C 366.02 320.62 371.68 319.07 372.25 314.98 C 373.33 310.69 368.06 306.99 364.36 309.27 M 352.36 319.39 C 349.66 320.21 348.17 323.15 349.08 325.82 C 349.88 329.82 355.41 330.48 358.22 328.21 C 359.97 325.97 360.04 322.15 357.71 320.27 C 356.35 318.80 354.13 319.24 352.36 319.39 Z" />
<path fill="#ffffff" opacity="1.00" d=" M 273.88 208.91 C 277.71 206.30 282.26 204.20 287.01 204.60 C 291.49 204.51 295.48 207.49 297.91 211.05 C 302.81 219.22 302.62 229.24 301.23 238.35 C 299.35 244.31 298.40 251.28 294.10 255.96 C 291.99 250.84 286.52 247.48 280.99 248.07 C 277.36 248.12 274.35 250.46 272.02 253.03 C 266.43 259.87 269.61 272.32 278.61 274.37 C 278.59 274.69 278.55 275.32 278.54 275.63 C 273.74 279.30 266.98 281.51 261.24 278.81 C 254.65 275.52 252.41 267.80 251.76 261.01 C 250.31 241.52 258.19 220.98 273.88 208.91 Z" />
<path fill="#ffffff" opacity="1.00" d=" M 319.17 231.17 C 323.76 227.03 329.89 222.90 336.37 224.69 C 342.60 226.89 345.30 233.87 345.85 239.96 C 346.63 250.98 344.42 262.41 338.93 272.06 C 337.39 271.82 337.15 269.81 336.12 268.85 C 332.94 265.39 327.67 263.78 323.14 265.25 C 316.21 267.55 312.01 275.77 314.30 282.71 C 315.39 286.76 318.73 290.01 322.70 291.25 C 318.84 295.97 309.31 297.35 305.38 291.59 C 300.42 284.77 301.00 275.90 301.34 267.92 C 303.05 254.22 309.02 240.75 319.17 231.17 Z" />
<path fill="#ffffff" opacity="1.00" d=" M 142.87 316.02 C 142.88 314.48 144.21 313.19 145.69 314.23 C 156.30 318.94 167.09 323.27 177.49 328.42 C 204.13 340.10 230.69 351.98 257.28 363.79 C 259.98 365.19 262.72 366.51 265.65 367.38 C 265.86 369.80 265.98 372.24 265.71 374.66 C 257.30 378.55 253.58 388.22 253.23 396.94 C 252.60 405.48 256.38 414.68 263.86 419.26 C 263.48 423.87 261.54 428.18 260.76 432.73 C 259.46 433.16 258.60 431.97 257.79 431.21 C 246.93 420.37 238.56 407.08 233.53 392.60 C 232.80 390.46 232.55 387.83 230.58 386.42 C 227.79 385.64 224.78 387.92 225.68 390.95 C 232.69 415.85 249.73 438.12 272.61 450.43 C 286.76 458.65 303.15 461.93 319.09 464.49 C 328.05 464.71 337.02 464.64 345.99 464.57 C 358.50 464.44 370.94 469.38 380.04 477.96 C 386.15 484.07 389.91 492.10 392.61 500.18 C 392.98 502.77 392.91 506.35 389.94 507.36 C 385.06 508.68 380.88 503.55 381.21 499.00 C 381.17 495.33 383.85 490.98 380.81 487.86 C 379.00 487.32 375.84 487.04 375.53 489.59 C 374.45 494.95 373.54 500.66 370.10 505.10 C 368.56 507.13 365.91 508.25 363.40 507.65 C 361.32 506.64 360.78 504.21 359.45 502.53 C 357.94 501.16 355.82 501.68 354.00 501.60 C 348.93 501.84 343.62 499.04 341.71 494.18 C 340.10 491.78 341.44 488.61 339.64 486.33 C 336.62 486.06 333.64 486.52 330.79 487.48 C 319.82 487.93 308.64 488.77 297.83 486.46 C 292.42 486.09 287.15 484.77 281.97 483.21 C 249.49 474.88 220.78 452.63 204.94 423.03 C 203.88 421.08 202.96 417.90 200.14 418.30 C 197.07 418.30 195.71 422.14 197.58 424.42 C 208.99 446.51 227.11 465.00 248.66 477.35 C 247.74 481.59 245.31 485.44 243.53 489.41 C 240.24 497.24 235.28 504.29 229.64 510.61 C 224.92 515.71 220.07 520.85 213.96 524.32 C 208.67 524.02 203.35 523.58 198.02 523.90 C 198.87 520.83 201.46 518.61 202.58 515.63 C 207.62 506.28 208.29 495.30 207.00 484.94 C 205.03 472.18 197.91 460.04 186.86 453.11 C 173.71 443.53 155.49 443.64 141.04 450.14 C 138.93 451.08 136.02 453.01 137.18 455.71 C 137.69 458.18 140.67 458.33 142.59 457.55 C 150.68 453.33 160.27 451.40 169.25 453.55 C 182.85 455.78 194.27 466.42 198.46 479.41 C 201.44 489.41 201.30 500.54 197.12 510.18 C 194.50 515.56 191.31 520.76 186.93 524.89 C 185.06 526.31 185.09 529.68 187.34 530.73 C 195.98 531.88 204.80 529.89 213.40 531.62 C 221.83 533.62 227.46 542.28 226.81 550.78 C 224.23 551.20 221.60 551.11 219.00 550.98 C 187.01 551.13 155.01 551.17 123.03 550.82 C 119.44 551.00 117.16 547.28 117.51 544.01 C 117.42 538.36 121.65 534.11 125.08 530.12 C 126.85 528.24 125.67 524.24 122.86 524.31 C 120.49 523.69 119.59 527.65 117.31 526.68 C 100.60 518.76 89.16 501.83 86.14 483.81 C 84.13 472.91 84.52 461.65 86.48 450.78 C 87.62 440.31 91.18 430.27 95.67 420.81 C 100.80 408.70 106.38 396.76 111.77 384.75 C 116.01 374.48 121.34 364.69 125.43 354.37 C 131.35 341.64 137.14 328.81 142.87 316.02 Z" />
<path fill="#ffffff" opacity="1.00" d=" M 273.27 371.32 C 274.76 369.92 276.40 372.91 274.78 373.82 C 273.27 374.83 272.16 372.28 273.27 371.32 Z" />
<path fill="#ffffff" opacity="1.00" d=" M 268.37 381.38 C 271.22 379.90 274.82 380.79 276.99 383.06 C 279.90 385.44 280.60 389.42 281.04 392.95 C 281.94 399.28 280.24 406.09 275.73 410.74 C 273.65 412.89 270.16 414.06 267.38 412.61 C 263.95 411.07 262.09 407.50 261.00 404.09 C 258.78 396.03 260.91 386.01 268.37 381.38 Z" />
<path fill="#ffffff" opacity="1.00" d=" M 388.32 450.34 C 391.72 449.21 394.98 451.55 397.71 453.31 C 403.55 457.49 408.57 463.15 410.95 470.02 C 412.25 473.89 414.65 478.06 413.22 482.20 C 411.33 486.14 405.46 486.64 403.02 483.01 C 401.24 479.59 400.74 475.63 398.85 472.25 C 396.74 467.27 392.41 463.64 387.69 461.25 C 382.96 459.51 383.46 451.60 388.32 450.34 M 389.23 453.99 C 387.47 454.60 387.39 457.21 389.19 457.83 C 393.44 460.01 397.17 463.10 400.12 466.86 C 402.86 470.93 404.13 475.72 405.71 480.30 C 406.62 483.01 410.88 481.79 409.99 478.91 C 407.79 469.66 402.78 460.58 394.39 455.58 C 392.79 454.86 391.09 452.95 389.23 453.99 Z" />
<path fill="#ffffff" opacity="1.00" d=" M 253.31 485.28 L 253.93 484.75 L 254.63 485.23 C 256.09 494.62 255.85 504.75 251.23 513.29 C 248.88 517.44 245.89 521.21 242.71 524.77 C 241.08 526.38 240.98 529.63 243.39 530.57 C 251.22 531.09 259.09 530.35 266.89 531.14 C 276.17 532.28 283.38 541.79 281.92 551.03 C 279.32 551.67 276.63 551.33 273.99 551.42 C 262.33 551.40 250.67 551.39 239.00 551.41 C 237.37 551.30 235.61 551.65 234.11 550.88 C 233.53 547.56 233.42 544.13 232.10 540.98 C 230.50 535.65 225.97 532.14 222.70 527.92 L 222.73 527.09 C 225.68 523.57 229.58 521.03 232.69 517.67 C 241.45 508.24 248.23 497.08 253.31 485.28 Z" />
<path fill="#ffffff" opacity="1.00" d=" M 439.19 519.24 C 443.31 518.96 447.71 517.80 451.71 519.19 C 451.79 519.85 451.94 521.16 452.02 521.82 C 447.94 524.04 442.74 523.39 438.19 523.71 C 437.43 522.27 437.05 519.64 439.19 519.24 Z" />
<path fill="#ffffff" opacity="1.00" d=" M 410.42 522.40 C 414.87 521.60 419.41 520.68 423.95 521.24 C 424.31 522.63 424.94 524.41 423.87 525.65 C 419.30 525.96 414.61 527.02 410.07 526.01 C 409.86 524.75 409.98 523.54 410.42 522.40 Z" />
<path fill="#ffffff" opacity="1.00" d=" M 383.07 525.05 C 387.63 524.34 392.25 523.65 396.88 524.18 C 396.96 525.40 396.92 526.63 396.78 527.85 C 392.25 528.56 387.56 529.57 383.00 528.95 C 382.38 527.62 382.40 526.33 383.07 525.05 Z" />
<path fill="#ffffff" opacity="1.00" d=" M 355.07 528.12 C 359.64 526.59 365.03 525.97 369.72 527.31 C 369.77 528.83 369.66 530.68 367.85 531.11 C 363.63 531.49 359.41 532.35 355.17 531.79 C 355.08 530.56 355.05 529.34 355.07 528.12 Z" />
<path fill="#ffffff" opacity="1.00" d=" M 457.30 528.35 C 459.57 528.26 462.29 527.33 464.27 528.80 C 464.98 531.40 464.38 534.25 464.82 536.94 C 464.78 541.87 465.96 546.85 464.76 551.72 C 433.84 551.93 402.92 551.76 372.00 551.81 C 353.74 551.70 335.46 552.06 317.21 551.63 C 316.09 548.83 315.63 545.41 316.55 542.56 C 323.20 540.95 330.30 541.23 337.10 540.20 C 377.17 536.32 417.24 532.33 457.30 528.35 M 402.53 537.42 C 375.06 539.81 347.66 543.06 320.16 545.26 C 320.12 545.95 320.04 547.31 320.00 548.00 C 321.59 548.61 323.34 548.26 325.01 548.36 C 370.34 548.29 415.67 548.43 460.99 548.29 L 461.87 547.88 C 461.33 542.56 461.30 537.20 460.98 531.87 C 441.47 533.07 422.01 535.59 402.53 537.42 Z" />
<path fill="#ffffff" opacity="1.00" d=" M 328.15 530.35 C 332.26 529.82 336.43 529.38 340.58 529.39 C 340.93 529.58 341.62 529.95 341.97 530.14 C 341.87 531.36 342.56 533.56 340.66 533.71 C 336.55 534.57 332.33 534.89 328.14 534.71 C 327.57 533.29 327.46 531.74 328.15 530.35 Z" />
</g>
<g id="#1b1b1bff">
<path fill="#1b1b1b" opacity="1.00" d=" M 248.51 53.55 C 257.19 40.14 271.90 30.64 287.91 29.20 C 295.58 28.43 303.21 29.97 310.73 31.32 C 317.66 32.84 324.87 33.58 331.40 36.56 C 336.72 39.27 340.43 44.59 341.47 50.44 C 342.78 59.31 337.38 68.77 328.84 71.74 C 323.41 73.94 317.45 72.58 312.15 70.71 C 305.99 68.28 299.87 65.72 293.73 63.23 C 286.07 60.59 277.23 62.91 271.47 68.48 C 267.26 73.52 265.39 79.92 262.84 85.86 C 254.55 106.77 245.62 127.42 237.17 148.26 C 236.71 149.96 235.86 152.22 237.10 153.74 C 242.01 154.55 247.13 154.43 251.82 156.32 C 269.37 163.97 286.76 172.01 304.24 179.83 C 306.01 180.53 309.02 181.10 309.54 178.55 C 315.92 162.31 322.26 146.04 328.85 129.86 C 332.85 120.28 337.76 110.56 345.95 103.87 C 355.57 95.62 368.29 90.63 381.05 91.31 C 391.99 90.96 402.00 96.07 411.82 100.21 C 416.22 102.43 421.14 103.78 424.93 107.06 C 432.34 113.55 433.21 126.21 426.48 133.49 C 421.20 140.16 411.06 142.51 403.50 138.54 C 398.45 135.69 393.42 132.76 388.74 129.33 C 383.50 125.74 377.85 121.37 371.10 122.14 C 363.15 122.44 356.14 127.55 352.41 134.40 C 341.40 149.58 331.76 165.66 321.31 181.21 C 320.19 182.69 319.38 184.79 320.33 186.56 C 324.75 189.48 329.93 190.99 334.64 193.37 C 359.94 204.80 385.30 216.07 410.65 227.36 C 419.50 231.77 429.02 234.96 437.03 240.94 C 445.31 247.37 452.69 255.33 457.07 264.96 C 459.86 270.26 461.17 276.15 463.10 281.78 C 463.94 287.13 463.81 292.64 463.78 298.05 C 462.57 305.41 460.97 312.73 459.01 319.93 C 457.28 326.99 452.03 332.35 448.55 338.55 C 445.05 344.40 438.80 347.54 433.67 351.70 C 419.46 362.07 400.89 365.19 383.76 362.22 C 376.46 360.91 369.69 357.75 362.87 355.00 C 341.84 345.27 320.50 336.19 299.46 326.49 C 297.86 325.93 295.79 324.88 294.29 326.16 C 290.36 338.48 287.96 351.25 284.65 363.76 C 283.84 367.89 282.15 371.81 281.64 376.00 C 281.23 378.57 283.63 380.26 284.66 382.36 C 290.70 392.93 288.46 407.35 279.96 415.95 C 277.66 418.37 274.38 419.14 271.38 420.28 C 269.56 422.71 269.63 426.00 268.63 428.79 C 267.86 432.07 266.03 435.41 266.85 438.82 C 269.69 442.31 274.21 443.79 278.04 445.94 C 296.79 455.46 318.13 458.76 338.99 457.97 C 346.36 458.03 353.89 457.87 361.00 460.14 C 375.84 463.61 388.21 474.57 394.95 488.04 C 398.02 493.38 399.92 499.69 398.71 505.86 C 397.42 510.83 392.23 514.88 386.98 513.92 C 382.78 513.85 380.18 510.21 376.98 508.08 C 374.48 509.45 373.02 512.09 370.53 513.46 C 365.84 515.36 359.88 514.50 356.70 510.32 C 354.41 507.22 350.02 508.72 346.93 507.05 C 340.61 505.26 336.59 499.64 333.88 494.03 C 323.91 494.06 313.86 495.61 303.93 493.97 C 291.21 492.70 278.65 489.81 266.70 485.26 C 265.27 484.65 263.77 484.30 262.23 484.24 C 261.21 485.61 261.86 487.38 261.88 488.93 C 263.10 499.31 260.44 509.99 254.91 518.80 C 253.97 520.40 252.15 522.11 252.87 524.12 C 258.20 524.79 263.65 523.85 268.92 525.22 C 277.60 527.08 284.83 534.15 287.38 542.60 C 288.34 545.54 288.49 548.66 289.20 551.67 C 296.08 551.93 302.98 551.88 309.86 551.70 C 311.39 547.63 308.87 542.93 311.12 539.08 C 313.64 535.04 318.98 536.72 322.90 535.70 C 323.96 532.76 322.12 528.35 325.68 526.71 C 329.62 525.45 333.86 525.54 337.95 525.14 C 339.99 525.07 342.33 524.50 344.06 525.95 C 346.40 527.46 345.82 530.68 347.35 532.75 C 347.94 532.73 349.11 532.69 349.70 532.68 C 351.14 529.55 350.25 524.77 354.43 523.53 C 359.82 523.50 365.14 521.93 370.53 522.47 C 373.34 523.81 373.19 527.31 374.28 529.82 C 375.45 529.89 376.63 529.87 377.81 529.77 C 378.45 527.54 378.03 525.06 378.95 522.94 C 381.64 519.69 386.29 520.52 390.01 520.01 C 393.06 519.91 396.60 518.41 399.24 520.68 C 401.19 522.05 401.05 524.65 401.44 526.74 C 402.78 527.29 404.34 527.70 405.70 526.91 C 406.13 524.27 404.91 520.07 408.12 518.91 C 411.80 516.97 416.01 517.45 420.00 517.01 C 422.12 516.91 424.52 516.13 426.38 517.58 C 428.25 518.84 428.12 521.36 428.82 523.29 C 429.61 524.89 431.68 524.44 433.07 524.10 C 433.26 522.20 433.32 520.31 433.52 518.42 C 434.30 516.14 436.71 514.99 439.01 514.99 C 443.31 514.78 447.58 513.92 451.90 514.06 C 455.57 514.59 455.87 518.83 456.28 521.75 C 459.76 522.33 463.31 521.49 466.79 522.06 C 471.80 525.60 470.30 532.68 470.68 537.97 C 471.29 542.48 470.62 547.13 471.48 551.58 C 498.31 552.06 525.15 551.53 551.99 551.69 C 555.34 551.88 559.69 550.82 561.92 554.05 L 561.76 554.88 C 561.14 555.86 560.32 556.69 559.57 557.58 C 478.39 557.81 397.19 557.53 316.00 557.65 C 225.41 557.60 134.81 557.69 44.22 557.61 C 41.95 557.92 40.48 555.34 41.14 553.35 C 42.23 551.83 44.28 551.86 45.95 551.81 C 66.32 551.90 86.68 551.74 107.05 551.87 C 108.56 551.92 110.04 551.73 111.52 551.45 C 112.33 548.97 110.91 546.47 110.91 543.97 C 110.58 540.32 112.66 537.18 113.71 533.85 C 114.27 531.88 111.88 531.27 110.67 530.39 C 96.99 522.84 86.89 509.63 82.13 494.85 C 81.25 492.90 80.93 490.14 78.54 489.46 C 64.85 484.08 53.46 473.27 47.00 460.11 C 40.60 447.07 39.48 431.95 41.83 417.76 C 42.38 415.15 42.75 412.43 44.12 410.10 C 44.51 410.14 45.30 410.21 45.69 410.24 C 45.09 426.77 50.13 444.79 63.57 455.40 C 67.96 458.16 73.27 461.72 78.64 459.89 C 79.07 447.99 82.07 436.32 86.35 425.26 C 94.88 405.60 103.99 386.20 112.56 366.56 C 121.89 346.74 130.44 326.57 139.75 306.74 C 152.43 278.66 165.44 250.74 177.64 222.46 C 184.73 208.06 190.79 193.18 197.73 178.71 C 202.26 169.69 210.02 162.48 219.04 158.06 C 219.99 157.55 220.56 156.74 220.74 155.65 C 225.22 135.28 230.24 115.03 234.84 94.68 C 239.05 80.89 239.97 65.66 248.51 53.55 M 202.73 183.70 C 185.94 220.87 169.03 257.98 152.43 295.24 C 152.41 295.58 152.36 296.27 152.34 296.61 C 160.69 299.78 168.69 303.79 176.94 307.21 C 191.45 314.12 206.42 320.02 220.84 327.11 C 239.91 335.23 258.73 343.95 277.75 352.23 C 278.64 352.73 279.59 352.89 280.61 352.71 C 282.75 344.48 284.61 336.16 286.98 327.99 C 287.45 326.10 288.04 324.17 287.74 322.20 C 284.34 321.16 281.32 319.22 278.01 317.96 C 276.46 317.22 274.57 316.60 273.93 314.84 C 272.88 312.42 275.12 309.20 277.85 310.13 C 287.81 313.77 297.21 318.88 307.01 322.98 C 327.64 332.20 348.33 341.31 368.88 350.77 C 377.25 333.60 384.41 315.85 392.55 298.56 C 397.51 287.52 402.37 276.43 407.38 265.41 C 410.92 256.44 415.84 248.08 419.03 238.98 C 418.82 238.69 418.41 238.12 418.21 237.83 C 367.46 215.36 316.82 192.55 266.25 169.83 C 258.96 167.35 252.61 162.36 244.81 161.33 C 227.84 157.79 209.36 167.72 202.73 183.70 M 142.87 316.02 C 137.14 328.81 131.35 341.64 125.43 354.37 C 121.34 364.69 116.01 374.48 111.77 384.75 C 106.38 396.76 100.80 408.70 95.67 420.81 C 91.18 430.27 87.62 440.31 86.48 450.78 C 84.52 461.65 84.13 472.91 86.14 483.81 C 89.16 501.83 100.60 518.76 117.31 526.68 C 119.59 527.65 120.49 523.69 122.86 524.31 C 125.67 524.24 126.85 528.24 125.08 530.12 C 121.65 534.11 117.42 538.36 117.51 544.01 C 117.16 547.28 119.44 551.00 123.03 550.82 C 155.01 551.17 187.01 551.13 219.00 550.98 C 221.60 551.11 224.23 551.20 226.81 550.78 C 227.46 542.28 221.83 533.62 213.40 531.62 C 204.80 529.89 195.98 531.88 187.34 530.73 C 185.09 529.68 185.06 526.31 186.93 524.89 C 191.31 520.76 194.50 515.56 197.12 510.18 C 201.30 500.54 201.44 489.41 198.46 479.41 C 194.27 466.42 182.85 455.78 169.25 453.55 C 160.27 451.40 150.68 453.33 142.59 457.55 C 140.67 458.33 137.69 458.18 137.18 455.71 C 136.02 453.01 138.93 451.08 141.04 450.14 C 155.49 443.64 173.71 443.53 186.86 453.11 C 197.91 460.04 205.03 472.18 207.00 484.94 C 208.29 495.30 207.62 506.28 202.58 515.63 C 201.46 518.61 198.87 520.83 198.02 523.90 C 203.35 523.58 208.67 524.02 213.96 524.32 C 220.07 520.85 224.92 515.71 229.64 510.61 C 235.28 504.29 240.24 497.24 243.53 489.41 C 245.31 485.44 247.74 481.59 248.66 477.35 C 227.11 465.00 208.99 446.51 197.58 424.42 C 195.71 422.14 197.07 418.30 200.14 418.30 C 202.96 417.90 203.88 421.08 204.94 423.03 C 220.78 452.63 249.49 474.88 281.97 483.21 C 287.15 484.77 292.42 486.09 297.83 486.46 C 308.64 488.77 319.82 487.93 330.79 487.48 C 333.64 486.52 336.62 486.06 339.64 486.33 C 341.44 488.61 340.10 491.78 341.71 494.18 C 343.62 499.04 348.93 501.84 354.00 501.60 C 355.82 501.68 357.94 501.16 359.45 502.53 C 360.78 504.21 361.32 506.64 363.40 507.65 C 365.91 508.25 368.56 507.13 370.10 505.10 C 373.54 500.66 374.45 494.95 375.53 489.59 C 375.84 487.04 379.00 487.32 380.81 487.86 C 383.85 490.98 381.17 495.33 381.21 499.00 C 380.88 503.55 385.06 508.68 389.94 507.36 C 392.91 506.35 392.98 502.77 392.61 500.18 C 389.91 492.10 386.15 484.07 380.04 477.96 C 370.94 469.38 358.50 464.44 345.99 464.57 C 337.02 464.64 328.05 464.71 319.09 464.49 C 303.15 461.93 286.76 458.65 272.61 450.43 C 249.73 438.12 232.69 415.85 225.68 390.95 C 224.78 387.92 227.79 385.64 230.58 386.42 C 232.55 387.83 232.80 390.46 233.53 392.60 C 238.56 407.08 246.93 420.37 257.79 431.21 C 258.60 431.97 259.46 433.16 260.76 432.73 C 261.54 428.18 263.48 423.87 263.86 419.26 C 256.38 414.68 252.60 405.48 253.23 396.94 C 253.58 388.22 257.30 378.55 265.71 374.66 C 265.98 372.24 265.86 369.80 265.65 367.38 C 262.72 366.51 259.98 365.19 257.28 363.79 C 230.69 351.98 204.13 340.10 177.49 328.42 C 167.09 323.27 156.30 318.94 145.69 314.23 C 144.21 313.19 142.88 314.48 142.87 316.02 M 273.27 371.32 C 272.16 372.28 273.27 374.83 274.78 373.82 C 276.40 372.91 274.76 369.92 273.27 371.32 M 268.37 381.38 C 260.91 386.01 258.78 396.03 261.00 404.09 C 262.09 407.50 263.95 411.07 267.38 412.61 C 270.16 414.06 273.65 412.89 275.73 410.74 C 280.24 406.09 281.94 399.28 281.04 392.95 C 280.60 389.42 279.90 385.44 276.99 383.06 C 274.82 380.79 271.22 379.90 268.37 381.38 M 253.31 485.28 C 248.23 497.08 241.45 508.24 232.69 517.67 C 229.58 521.03 225.68 523.57 222.73 527.09 L 222.70 527.92 C 225.97 532.14 230.50 535.65 232.10 540.98 C 233.42 544.13 233.53 547.56 234.11 550.88 C 235.61 551.65 237.37 551.30 239.00 551.41 C 250.67 551.39 262.33 551.40 273.99 551.42 C 276.63 551.33 279.32 551.67 281.92 551.03 C 283.38 541.79 276.17 532.28 266.89 531.14 C 259.09 530.35 251.22 531.09 243.39 530.57 C 240.98 529.63 241.08 526.38 242.71 524.77 C 245.89 521.21 248.88 517.44 251.23 513.29 C 255.85 504.75 256.09 494.62 254.63 485.23 L 253.93 484.75 L 253.31 485.28 M 439.19 519.24 C 437.05 519.64 437.43 522.27 438.19 523.71 C 442.74 523.39 447.94 524.04 452.02 521.82 C 451.94 521.16 451.79 519.85 451.71 519.19 C 447.71 517.80 443.31 518.96 439.19 519.24 M 410.42 522.40 C 409.98 523.54 409.86 524.75 410.07 526.01 C 414.61 527.02 419.30 525.96 423.87 525.65 C 424.94 524.41 424.31 522.63 423.95 521.24 C 419.41 520.68 414.87 521.60 410.42 522.40 M 383.07 525.05 C 382.40 526.33 382.38 527.62 383.00 528.95 C 387.56 529.57 392.25 528.56 396.78 527.85 C 396.92 526.63 396.96 525.40 396.88 524.18 C 392.25 523.65 387.63 524.34 383.07 525.05 M 355.07 528.12 C 355.05 529.34 355.08 530.56 355.17 531.79 C 359.41 532.35 363.63 531.49 367.85 531.11 C 369.66 530.68 369.77 528.83 369.72 527.31 C 365.03 525.97 359.64 526.59 355.07 528.12 M 457.30 528.35 C 417.24 532.33 377.17 536.32 337.10 540.20 C 330.30 541.23 323.20 540.95 316.55 542.56 C 315.63 545.41 316.09 548.83 317.21 551.63 C 335.46 552.06 353.74 551.70 372.00 551.81 C 402.92 551.76 433.84 551.93 464.76 551.72 C 465.96 546.85 464.78 541.87 464.82 536.94 C 464.38 534.25 464.98 531.40 464.27 528.80 C 462.29 527.33 459.57 528.26 457.30 528.35 M 328.15 530.35 C 327.46 531.74 327.57 533.29 328.14 534.71 C 332.33 534.89 336.55 534.57 340.66 533.71 C 342.56 533.56 341.87 531.36 341.97 530.14 C 341.62 529.95 340.93 529.58 340.58 529.39 C 336.43 529.38 332.26 529.82 328.15 530.35 Z" />
<path fill="#1b1b1b" opacity="1.00" d=" M 1525.54 87.54 C 1532.51 86.59 1539.59 86.18 1546.56 87.53 C 1548.68 89.37 1551.96 89.10 1554.55 90.21 C 1554.53 90.60 1554.49 91.39 1554.47 91.78 C 1557.21 91.20 1558.91 93.64 1560.55 95.38 C 1563.96 95.76 1565.52 99.07 1568.03 100.99 C 1569.13 101.78 1569.18 103.25 1569.53 104.46 C 1572.62 106.80 1574.15 110.93 1575.56 114.52 C 1577.52 116.06 1576.16 118.87 1576.85 120.97 C 1578.20 126.47 1576.86 132.03 1576.49 137.54 C 1574.88 139.01 1575.10 141.42 1574.22 143.29 C 1573.68 145.53 1572.08 147.29 1571.44 149.48 C 1569.50 150.56 1568.06 152.10 1567.01 154.02 C 1564.06 155.64 1562.13 158.43 1559.65 160.61 C 1556.29 162.62 1552.18 163.66 1549.46 166.56 C 1546.63 166.66 1543.77 166.42 1541.00 167.06 C 1535.50 168.16 1530.06 166.05 1524.54 166.58 C 1523.33 164.30 1520.22 165.07 1518.50 163.43 C 1516.38 161.75 1513.52 161.31 1511.57 159.41 C 1507.32 155.22 1502.57 151.09 1500.75 145.20 C 1496.43 140.59 1496.15 133.99 1495.65 128.00 C 1495.49 124.16 1496.27 120.36 1496.54 116.54 C 1498.43 114.32 1498.47 111.18 1499.69 108.60 C 1500.72 104.73 1505.09 103.23 1506.45 99.49 C 1510.95 97.15 1513.27 91.76 1518.37 90.41 C 1520.72 89.39 1523.56 89.32 1525.54 87.54 Z" />
<path fill="#1b1b1b" opacity="1.00" d=" M 2253.50 87.53 C 2261.16 86.39 2268.90 86.23 2276.57 87.49 C 2277.67 89.13 2279.88 88.54 2281.47 89.41 C 2283.32 90.04 2284.63 91.65 2286.46 92.39 C 2290.99 94.32 2293.24 99.17 2297.44 101.58 C 2298.01 104.12 2299.91 105.71 2301.55 107.56 C 2302.68 111.06 2305.31 114.04 2305.27 117.89 C 2306.82 123.44 2307.00 129.57 2305.30 135.09 C 2304.82 142.00 2301.37 148.54 2296.09 153.01 C 2294.43 156.93 2290.18 158.46 2287.42 161.44 C 2283.70 162.78 2280.38 164.59 2276.69 165.87 C 2270.48 166.85 2263.97 168.58 2257.77 166.44 C 2250.75 166.41 2245.34 161.64 2239.52 158.51 C 2237.05 156.29 2234.91 153.74 2232.50 151.48 C 2229.77 149.53 2229.20 146.01 2227.66 143.24 C 2224.21 137.47 2224.58 130.49 2224.65 124.02 C 2224.86 120.08 2224.92 115.70 2227.41 112.41 C 2227.72 107.97 2231.16 104.96 2233.33 101.38 C 2234.93 98.92 2237.57 97.56 2239.94 95.96 C 2241.43 93.29 2244.65 92.77 2246.86 90.90 C 2248.70 89.12 2251.67 89.40 2253.50 87.53 Z" />
<path fill="#1b1b1b" opacity="1.00" d=" M 642.83 88.81 C 663.20 88.29 683.62 88.77 704.01 88.57 C 705.59 88.69 707.34 88.22 708.81 89.06 C 708.72 147.37 708.83 205.69 708.75 264.00 C 708.88 272.00 708.35 280.04 709.05 288.01 C 711.04 288.44 712.37 285.67 714.43 285.30 C 720.32 280.24 724.95 273.69 731.49 269.46 C 738.09 262.67 745.11 256.45 751.78 249.77 C 755.62 247.35 758.32 243.39 762.40 241.34 C 766.57 237.21 770.98 233.28 774.75 228.75 C 776.10 226.97 778.11 226.02 779.98 224.91 C 784.20 220.81 788.29 216.56 792.57 212.52 C 796.78 210.19 799.32 205.85 803.18 203.10 C 805.22 202.23 805.81 199.84 807.44 198.48 C 809.15 197.64 811.12 197.74 812.99 197.67 C 839.99 197.64 867.00 197.87 894.00 197.65 C 895.42 197.82 897.91 197.04 898.31 199.09 C 898.51 200.79 896.42 201.51 895.36 202.48 C 893.11 203.51 892.02 205.80 890.42 207.53 C 886.47 208.39 884.43 212.09 881.49 214.48 C 876.23 218.15 872.12 223.16 867.50 227.53 C 862.87 230.07 859.88 234.75 855.41 237.53 C 851.29 239.59 849.24 244.11 845.39 246.52 C 840.97 248.93 838.44 253.67 834.15 256.25 C 831.33 258.02 829.71 261.25 826.60 262.61 C 825.18 264.92 823.57 267.38 820.56 267.53 C 819.25 270.13 816.39 271.34 814.79 273.81 C 809.46 276.55 805.81 281.54 801.55 285.62 C 796.85 287.67 794.56 292.77 790.15 295.22 C 787.48 297.15 785.40 299.76 782.88 301.87 C 780.02 304.73 776.16 306.39 773.54 309.51 C 772.64 312.26 776.07 313.65 777.74 315.16 C 784.12 319.05 787.69 326.07 794.14 329.83 C 797.14 331.42 798.88 334.43 801.47 336.54 C 806.21 340.79 810.15 345.98 815.51 349.50 C 818.34 352.31 821.16 355.13 824.02 357.91 C 831.41 361.88 835.22 370.31 842.71 374.23 C 844.86 375.75 846.43 377.90 848.05 379.96 C 851.40 381.81 853.61 385.02 856.57 387.37 C 862.55 391.99 867.57 397.70 873.02 402.91 C 879.72 406.65 883.34 414.10 890.02 417.86 C 893.75 420.15 895.65 424.42 899.44 426.56 C 899.96 427.36 900.49 428.16 901.02 428.97 C 902.42 430.05 905.33 430.65 904.15 433.05 C 893.14 433.71 882.04 433.17 871.00 433.30 C 852.99 433.22 834.98 433.41 816.98 433.26 C 811.67 427.66 805.94 422.15 800.49 416.56 C 792.90 412.09 787.78 404.50 781.27 398.68 C 777.68 394.26 772.97 390.94 769.41 386.66 C 765.39 384.10 762.49 380.18 759.00 377.00 C 752.24 371.47 746.18 365.16 739.99 359.01 C 735.60 354.71 731.50 350.07 726.42 346.57 C 720.73 340.06 714.09 334.48 708.19 328.17 C 708.75 342.09 708.26 356.06 708.43 369.99 C 708.30 390.75 708.68 411.53 708.23 432.28 C 692.17 432.71 676.07 432.34 660.00 432.47 C 654.27 432.36 648.52 432.71 642.81 432.28 C 642.35 418.20 642.75 404.09 642.62 390.00 C 642.61 303.66 642.63 217.33 642.62 131.00 C 642.76 116.94 642.33 102.85 642.83 88.81 Z" />
<path fill="#1b1b1b" opacity="1.00" d=" M 2116.80 88.81 C 2126.84 88.28 2136.93 88.74 2147.00 88.59 C 2158.71 88.75 2170.46 88.30 2182.17 88.81 C 2182.65 112.52 2182.24 136.28 2182.37 160.00 C 2182.39 249.34 2182.34 338.67 2182.40 428.01 C 2182.36 429.94 2183.04 433.55 2180.01 433.31 C 2161.34 433.30 2142.67 433.25 2124.00 433.32 C 2121.61 433.28 2119.21 433.55 2116.89 433.05 C 2116.17 425.41 2116.79 417.68 2116.59 410.00 C 2116.59 319.67 2116.58 229.33 2116.59 139.00 C 2116.74 122.28 2116.30 105.52 2116.80 88.81 Z" />
<path fill="#1b1b1b" opacity="1.00" d=" M 1412.48 154.48 C 1415.42 154.40 1418.36 154.26 1421.18 153.26 C 1431.77 152.86 1442.37 152.38 1452.98 152.72 C 1454.80 153.28 1453.94 155.60 1454.16 156.98 C 1454.17 172.99 1454.04 188.99 1454.13 204.99 C 1454.08 207.24 1454.39 209.55 1453.77 211.74 C 1441.25 211.67 1427.88 210.22 1416.52 216.57 C 1414.34 218.84 1410.41 220.86 1411.37 224.56 C 1416.71 230.00 1422.59 235.02 1426.26 241.80 C 1428.60 244.18 1429.93 247.32 1432.46 249.59 C 1433.75 254.21 1437.93 257.51 1438.30 262.49 C 1438.64 262.50 1439.33 262.51 1439.67 262.51 C 1440.63 266.91 1442.99 270.93 1443.55 275.41 C 1445.57 278.28 1446.58 282.10 1446.21 285.63 C 1446.61 285.57 1447.40 285.44 1447.80 285.38 C 1447.50 287.76 1447.49 290.18 1448.46 292.41 C 1449.72 302.87 1449.56 313.42 1449.34 323.94 C 1449.15 329.52 1447.55 334.89 1447.53 340.45 C 1447.27 340.70 1446.76 341.20 1446.50 341.45 C 1446.19 345.61 1444.14 349.34 1443.39 353.41 C 1441.79 355.09 1441.18 357.34 1440.75 359.55 C 1440.37 359.53 1439.60 359.49 1439.22 359.47 C 1438.84 363.95 1436.53 368.20 1433.89 371.79 C 1432.48 374.08 1431.81 376.86 1429.66 378.63 C 1423.77 387.54 1416.20 395.16 1408.28 402.29 C 1406.97 403.38 1405.40 404.05 1404.02 405.00 C 1402.57 406.88 1401.41 409.14 1399.03 409.98 C 1394.69 411.40 1392.15 415.64 1387.58 416.62 C 1385.36 419.57 1381.48 420.09 1378.27 421.39 C 1374.95 423.25 1371.35 425.23 1367.45 425.25 C 1367.47 425.61 1367.52 426.32 1367.54 426.68 C 1363.13 427.25 1359.01 429.37 1354.52 429.51 C 1353.60 431.15 1351.59 430.47 1350.08 430.79 C 1344.88 432.44 1339.34 432.22 1333.96 432.46 C 1323.29 432.28 1312.42 433.17 1301.96 430.74 C 1298.73 430.82 1295.81 429.20 1292.56 429.53 C 1290.37 427.18 1286.62 427.65 1283.98 426.00 C 1281.06 424.25 1277.41 424.25 1274.57 422.35 C 1272.74 421.28 1270.68 419.98 1268.49 420.43 C 1266.25 423.13 1263.47 425.61 1263.47 429.49 C 1259.93 430.62 1259.64 434.45 1258.45 437.41 C 1256.09 444.84 1257.31 452.81 1260.37 459.85 C 1261.09 463.07 1264.48 464.18 1266.57 466.38 C 1273.25 469.43 1280.68 470.66 1288.00 470.38 C 1298.07 470.32 1308.18 470.75 1318.19 469.34 C 1327.16 469.45 1336.08 468.46 1345.06 468.58 C 1356.82 468.62 1368.71 468.06 1380.36 469.75 C 1382.59 471.05 1385.91 469.24 1387.53 471.49 C 1392.29 471.75 1396.79 473.53 1401.42 474.63 C 1403.99 476.50 1407.33 476.59 1410.16 477.94 C 1414.67 480.75 1419.95 482.41 1423.65 486.37 C 1426.40 487.80 1429.16 489.40 1431.08 491.94 C 1434.77 494.17 1437.40 497.61 1440.69 500.34 C 1443.58 504.41 1446.94 508.08 1449.87 512.10 C 1452.04 517.17 1456.01 521.28 1457.40 526.73 C 1459.32 529.93 1461.65 533.64 1461.20 537.57 C 1461.57 537.54 1462.33 537.47 1462.70 537.44 C 1463.01 540.40 1465.30 543.14 1464.02 546.19 C 1463.37 546.20 1462.07 546.21 1461.43 546.22 C 1461.46 546.59 1461.52 547.34 1461.55 547.72 C 1453.64 549.60 1446.61 553.96 1438.62 555.62 C 1435.22 558.58 1430.34 558.20 1426.66 560.60 C 1423.37 562.83 1419.01 562.41 1415.86 564.76 C 1411.69 566.89 1406.65 567.12 1402.87 569.87 C 1402.48 569.86 1401.69 569.84 1401.29 569.84 C 1399.51 567.07 1399.22 563.69 1398.43 560.58 C 1396.12 558.45 1396.16 555.03 1394.37 552.60 C 1391.97 549.26 1390.92 545.00 1387.99 542.06 C 1385.28 540.50 1382.76 538.68 1380.24 536.87 C 1373.50 534.18 1366.30 532.20 1359.00 532.62 C 1348.60 532.89 1338.11 531.88 1327.81 533.64 C 1321.52 533.84 1315.15 533.73 1308.99 535.09 C 1293.68 535.48 1278.36 535.64 1263.05 535.39 C 1256.40 535.64 1250.06 533.39 1243.55 532.43 C 1241.94 530.98 1239.65 530.97 1237.74 530.22 C 1234.86 529.49 1232.38 527.54 1229.34 527.52 C 1229.39 526.75 1229.46 525.99 1229.54 525.23 C 1227.09 525.68 1225.25 523.76 1223.08 523.09 C 1221.15 522.47 1219.59 521.20 1218.39 519.62 C 1216.49 518.56 1214.45 517.62 1213.37 515.63 C 1210.78 514.33 1209.04 511.97 1206.98 510.03 C 1203.98 506.97 1200.65 504.09 1198.72 500.20 C 1198.07 498.90 1196.44 498.36 1196.04 496.91 C 1195.22 494.28 1193.14 492.31 1192.38 489.68 C 1191.62 487.76 1191.21 485.68 1190.00 483.99 C 1188.07 481.12 1189.26 476.63 1186.43 474.45 C 1186.81 469.91 1185.30 465.52 1185.63 460.99 C 1185.82 456.32 1185.16 451.59 1186.12 446.98 C 1186.60 444.53 1186.30 442.03 1186.44 439.55 C 1189.23 437.03 1187.93 432.30 1190.37 429.40 C 1191.14 426.97 1191.74 424.42 1193.35 422.36 C 1194.87 420.36 1194.67 417.39 1196.91 415.89 C 1199.74 411.56 1200.82 405.40 1205.95 402.98 C 1209.44 397.38 1214.32 392.67 1219.28 388.45 C 1221.64 388.04 1223.10 385.94 1225.11 384.79 C 1226.33 382.61 1222.71 382.54 1222.30 380.75 C 1219.76 375.51 1215.49 371.42 1213.06 366.13 C 1211.87 364.11 1211.47 361.76 1210.48 359.68 C 1206.09 357.37 1208.92 350.56 1204.65 348.35 C 1203.68 342.25 1201.40 336.35 1201.38 330.12 C 1199.44 325.82 1201.67 320.93 1199.64 316.65 C 1199.28 309.75 1199.84 302.81 1199.33 295.91 C 1199.23 293.12 1199.31 290.32 1199.49 287.54 C 1202.05 284.55 1200.93 279.47 1203.44 276.41 C 1204.26 272.61 1205.13 268.66 1207.34 265.38 C 1208.58 262.34 1209.33 259.04 1211.36 256.38 C 1213.02 254.21 1213.35 251.27 1215.35 249.33 C 1218.47 245.93 1218.89 240.44 1223.47 238.39 C 1228.14 230.74 1235.19 224.76 1241.87 218.82 C 1245.00 217.00 1247.13 214.02 1250.36 212.36 C 1253.49 208.28 1259.64 208.73 1262.83 204.80 C 1264.70 203.86 1266.71 203.20 1268.74 202.61 C 1271.93 200.66 1275.63 198.42 1279.55 198.79 C 1279.52 198.41 1279.47 197.67 1279.44 197.29 C 1282.73 196.36 1286.34 195.97 1289.24 194.42 C 1293.50 193.52 1297.84 193.10 1302.01 191.79 C 1315.66 191.37 1329.33 191.35 1342.98 191.79 C 1347.85 193.45 1353.37 193.13 1358.00 195.05 C 1359.50 196.90 1361.02 194.28 1362.72 194.43 C 1362.55 191.80 1364.67 189.88 1365.51 187.53 C 1366.77 183.44 1371.74 181.96 1372.50 177.61 C 1374.90 175.65 1376.99 173.35 1379.23 171.22 C 1380.55 169.79 1382.77 169.65 1383.92 167.99 C 1386.28 165.02 1389.97 163.69 1393.40 162.37 C 1397.64 158.92 1403.03 157.58 1408.16 155.87 C 1409.63 155.51 1411.58 156.08 1412.48 154.48 M 1317.78 252.59 C 1307.48 252.05 1298.78 258.10 1289.54 261.63 C 1287.06 264.54 1283.41 266.00 1281.04 269.04 C 1278.29 271.08 1277.45 274.68 1274.62 276.62 C 1272.49 280.00 1271.09 283.77 1269.32 287.33 C 1266.18 291.97 1265.70 297.68 1264.61 302.98 C 1264.77 311.78 1263.64 320.79 1266.78 329.22 C 1268.37 333.18 1268.91 337.82 1272.02 340.97 C 1273.00 342.65 1273.33 344.73 1275.01 345.94 C 1279.54 351.91 1284.68 357.83 1291.48 361.25 C 1291.50 361.62 1291.55 362.35 1291.58 362.72 C 1297.19 364.14 1302.29 367.12 1308.00 368.24 C 1308.98 368.32 1309.82 368.74 1310.51 369.48 C 1320.96 370.55 1331.95 371.13 1342.05 368.04 C 1346.74 365.18 1353.02 365.18 1356.94 360.94 C 1363.04 358.40 1366.26 352.26 1371.38 348.38 C 1373.91 343.89 1377.32 339.86 1378.87 334.87 C 1380.05 332.86 1379.85 330.26 1381.41 328.47 C 1384.47 317.08 1383.68 304.95 1381.46 293.55 C 1379.14 291.06 1379.12 287.39 1377.38 284.58 C 1375.60 281.62 1373.94 278.60 1372.38 275.54 C 1370.09 272.86 1367.46 270.51 1365.08 267.93 C 1362.48 265.90 1360.64 262.92 1357.56 261.57 C 1354.55 259.82 1351.17 258.73 1348.38 256.65 C 1342.50 254.67 1336.50 252.36 1330.22 252.60 C 1326.21 251.14 1321.81 251.40 1317.78 252.59 Z" />
<path fill="#1b1b1b" opacity="1.00" d=" M 991.76 193.97 C 994.82 193.09 998.04 192.98 1001.03 191.82 C 1015.02 191.28 1029.04 191.47 1043.03 191.73 C 1047.48 192.81 1051.99 193.74 1056.51 194.54 C 1057.70 196.23 1059.99 195.37 1061.66 196.20 C 1064.08 197.18 1066.77 197.56 1069.01 198.99 C 1071.09 200.35 1074.03 200.24 1075.59 202.42 C 1080.21 203.67 1084.79 205.39 1088.60 208.38 C 1090.15 209.63 1092.45 209.68 1093.71 211.33 C 1094.49 212.57 1095.88 213.09 1097.12 213.80 C 1100.75 215.71 1102.70 219.76 1106.50 221.44 C 1112.85 227.42 1118.52 234.18 1125.39 239.58 C 1125.91 242.36 1128.63 243.87 1129.45 246.54 C 1130.63 249.54 1133.18 251.75 1134.25 254.82 C 1135.08 257.42 1137.44 259.16 1138.10 261.84 C 1139.84 267.37 1143.15 272.24 1144.21 278.01 C 1146.47 283.84 1148.50 290.13 1148.49 296.50 C 1150.79 298.16 1149.09 301.57 1149.66 303.99 C 1150.66 311.96 1150.25 319.99 1150.32 328.00 C 1150.31 358.33 1150.32 388.66 1150.32 419.00 C 1150.18 423.40 1150.63 427.84 1150.05 432.22 C 1140.73 432.81 1131.34 432.30 1122.00 432.47 C 1109.91 432.35 1097.80 432.70 1085.72 432.30 C 1085.36 424.63 1085.55 416.94 1085.69 409.26 C 1085.38 409.31 1084.78 409.42 1084.48 409.47 C 1082.89 413.31 1079.05 415.66 1075.58 417.65 C 1071.39 421.60 1066.23 425.31 1060.49 426.25 C 1060.50 426.63 1060.52 427.38 1060.53 427.75 C 1057.01 428.09 1054.01 430.82 1050.43 430.21 C 1050.47 430.59 1050.55 431.36 1050.60 431.74 C 1047.44 431.82 1044.58 433.31 1041.46 433.56 C 1038.62 435.34 1035.07 434.36 1031.96 435.31 C 1019.46 435.46 1006.91 435.86 994.48 434.52 C 993.15 432.38 990.24 433.95 988.33 432.83 C 986.45 431.72 983.74 432.46 982.40 430.55 C 978.59 429.75 974.54 429.06 971.36 426.66 C 968.81 425.61 966.03 424.85 963.85 423.14 C 961.98 420.99 958.41 421.67 956.83 419.11 C 952.51 415.72 945.89 415.12 943.35 409.63 C 936.82 405.70 931.91 399.76 926.52 394.48 C 924.04 390.67 920.51 387.66 918.37 383.62 C 914.72 380.60 914.39 375.25 910.93 372.06 C 908.66 367.21 905.78 362.59 904.63 357.28 C 902.91 354.98 902.69 352.02 901.46 349.48 C 899.69 348.28 900.74 345.95 899.99 344.25 C 899.20 340.86 898.55 337.44 897.82 334.04 C 897.34 320.38 897.29 306.67 897.87 293.02 C 899.10 289.71 899.03 286.14 900.15 282.81 C 900.21 278.79 903.31 275.63 903.29 271.46 C 903.64 271.48 904.36 271.50 904.72 271.51 C 905.29 264.97 909.47 259.72 911.86 253.82 C 914.57 249.87 916.32 245.24 919.94 241.98 C 921.94 238.12 925.88 235.85 927.99 232.06 C 932.51 225.51 939.84 221.92 944.90 215.91 C 947.08 213.57 950.70 213.09 952.81 210.80 C 953.63 208.12 956.66 208.08 958.74 206.83 C 961.36 205.33 964.49 204.84 966.93 202.99 C 970.01 200.76 974.04 200.46 977.16 198.28 C 980.52 197.13 983.84 195.65 987.44 195.48 C 988.38 193.93 990.28 194.52 991.76 193.97 M 1010.10 252.81 C 1004.39 254.39 998.70 256.08 993.20 258.25 C 991.41 260.28 988.98 261.37 986.63 262.60 C 985.03 265.44 981.47 266.01 979.54 268.55 C 976.13 271.28 974.82 275.63 971.63 278.56 C 968.76 285.16 964.54 291.35 963.54 298.60 C 963.26 298.83 962.70 299.28 962.42 299.51 C 962.13 307.33 960.64 315.24 962.27 323.03 C 962.68 324.83 961.58 327.28 963.46 328.46 C 963.97 333.02 966.36 337.02 967.63 341.38 C 970.22 343.85 970.69 347.55 972.65 350.44 C 974.08 352.65 976.84 353.68 977.95 356.14 C 978.74 358.19 980.56 359.45 982.31 360.65 C 984.48 362.03 985.87 364.48 988.44 365.25 C 988.48 365.61 988.56 366.35 988.60 366.71 C 992.06 367.90 995.72 369.05 998.63 371.37 C 1010.75 375.62 1023.92 376.42 1036.55 374.36 C 1038.42 373.29 1041.00 374.32 1042.52 372.59 C 1046.67 371.67 1050.39 369.53 1054.47 368.38 C 1057.40 364.42 1063.16 364.05 1065.64 359.73 C 1068.28 356.73 1072.19 354.77 1073.77 350.91 C 1075.37 348.46 1075.68 344.99 1078.51 343.52 C 1078.96 341.55 1079.26 339.54 1079.52 337.53 C 1080.56 336.56 1081.49 335.48 1082.49 334.46 C 1084.32 326.13 1085.71 317.61 1084.89 309.00 C 1085.03 304.91 1084.25 300.70 1083.03 296.97 C 1081.13 292.62 1080.69 287.31 1077.55 283.45 C 1076.68 282.33 1076.80 280.81 1076.50 279.50 C 1076.17 279.32 1075.52 278.97 1075.19 278.80 C 1072.17 272.79 1066.22 269.09 1061.98 264.00 C 1058.17 260.55 1052.91 259.33 1048.79 256.33 C 1044.86 255.05 1040.92 253.77 1036.92 252.77 C 1034.88 252.69 1032.87 252.41 1030.96 251.70 C 1026.32 251.49 1021.65 251.58 1017.01 251.67 C 1014.77 252.45 1012.45 252.75 1010.10 252.81 Z" />
<path fill="#1b1b1b" opacity="1.00" d=" M 1946.50 194.54 C 1953.06 193.68 1959.35 191.22 1966.05 191.62 C 1978.02 191.44 1990.01 191.36 2001.98 191.83 C 2005.24 193.09 2008.78 193.11 2012.12 194.16 C 2013.59 194.49 2015.49 193.95 2016.49 195.46 C 2021.31 196.14 2025.64 198.60 2030.38 199.62 C 2034.34 202.19 2038.58 204.17 2042.85 206.20 C 2044.58 207.84 2047.52 208.18 2048.51 210.49 C 2051.32 210.78 2054.29 211.80 2055.25 214.78 C 2057.84 217.44 2061.86 218.74 2064.09 221.95 C 2066.32 225.05 2069.90 226.97 2071.70 230.41 C 2073.32 233.06 2076.88 234.43 2077.36 237.74 C 2077.41 239.02 2079.22 239.02 2079.34 240.38 C 2079.69 240.43 2080.39 240.52 2080.74 240.56 C 2082.10 243.81 2083.80 246.91 2085.37 250.04 C 2085.13 252.34 2082.08 252.35 2080.63 253.63 C 2078.37 256.62 2074.10 256.89 2071.64 259.62 C 2070.90 260.36 2070.07 260.92 2069.14 261.31 C 2066.50 262.16 2065.10 264.75 2062.49 265.67 C 2058.91 266.83 2056.72 270.01 2053.20 271.26 C 2050.54 273.49 2048.37 276.55 2044.53 276.51 C 2041.77 279.24 2038.45 281.61 2034.94 283.35 C 2032.24 283.89 2032.01 280.47 2031.00 278.81 C 2030.37 276.74 2028.83 275.30 2027.68 273.60 C 2027.31 273.55 2026.57 273.46 2026.20 273.41 C 2025.21 267.36 2018.35 265.43 2014.85 261.22 C 2013.01 260.36 2010.91 259.97 2009.46 258.49 C 2007.43 256.51 2004.55 255.99 2001.98 255.11 C 1998.42 254.12 1994.98 252.48 1991.24 252.56 C 1982.84 250.34 1974.04 252.18 1965.52 252.44 C 1965.28 252.70 1964.79 253.21 1964.54 253.47 C 1960.53 254.77 1956.57 256.21 1952.62 257.62 C 1951.18 259.06 1949.37 259.91 1947.53 260.63 C 1945.32 263.14 1942.16 264.45 1939.99 266.98 C 1937.91 269.21 1935.56 271.20 1933.62 273.54 C 1930.26 279.44 1926.05 284.97 1924.58 291.74 C 1920.32 301.08 1920.36 311.86 1920.88 322.01 C 1922.44 327.98 1922.74 334.51 1926.07 339.85 C 1927.62 344.86 1931.06 348.90 1933.59 353.42 C 1934.47 354.23 1935.51 354.87 1936.56 355.53 C 1937.31 359.15 1940.37 361.70 1943.48 363.40 C 1945.44 364.74 1946.69 367.01 1949.11 367.71 C 1955.07 370.03 1960.93 373.28 1967.45 373.47 C 1968.24 375.26 1970.37 374.72 1971.97 374.98 C 1981.60 375.97 1991.48 375.45 2000.73 372.64 C 2003.71 370.81 2007.07 369.54 2010.47 368.66 C 2010.49 368.31 2010.53 367.61 2010.54 367.26 C 2017.78 364.97 2022.37 358.68 2027.49 353.50 C 2029.53 350.41 2032.13 347.80 2033.27 344.17 C 2035.45 343.20 2037.12 345.02 2038.82 346.09 C 2042.17 347.64 2044.63 350.50 2048.16 351.81 C 2050.15 354.46 2053.53 355.16 2056.40 356.53 C 2060.21 360.40 2066.19 361.10 2069.67 365.37 C 2072.88 368.42 2077.61 369.22 2081.09 371.96 C 2082.40 373.15 2084.14 373.60 2085.78 374.22 C 2086.85 378.65 2081.60 380.87 2080.93 384.79 C 2080.28 386.11 2078.84 386.84 2078.29 388.21 C 2076.91 391.65 2072.83 393.00 2071.71 396.56 C 2070.24 399.10 2067.29 400.25 2065.68 402.68 C 2063.05 404.45 2061.88 407.81 2058.88 409.05 C 2056.02 409.97 2054.89 413.16 2052.22 414.33 C 2049.70 415.70 2047.66 418.77 2044.47 418.20 C 2044.50 418.60 2044.57 419.42 2044.60 419.83 C 2040.44 420.99 2037.63 424.68 2033.25 425.39 C 2030.29 427.31 2027.05 428.85 2023.59 429.61 C 2020.68 431.65 2016.86 431.42 2013.67 432.78 C 2012.00 433.50 2010.17 433.19 2008.46 433.50 C 2007.05 435.62 2004.12 434.09 2002.07 434.83 C 1998.83 436.04 1995.36 435.53 1992.01 435.94 C 1982.08 437.01 1972.13 435.91 1962.20 435.64 C 1959.72 434.54 1957.04 434.57 1954.41 434.58 C 1953.19 432.27 1950.11 433.98 1948.18 432.92 C 1946.28 432.02 1943.88 432.15 1942.41 430.54 C 1935.64 429.67 1929.75 426.06 1923.44 423.82 C 1923.46 423.42 1923.50 422.62 1923.51 422.22 C 1917.40 422.19 1913.50 416.00 1907.52 415.47 C 1905.28 410.37 1899.46 408.92 1896.43 404.53 C 1892.75 400.91 1889.20 397.14 1885.36 393.68 C 1883.81 392.11 1881.96 390.75 1881.32 388.55 C 1879.89 386.67 1877.72 385.37 1876.82 383.11 C 1875.13 379.04 1871.59 376.03 1870.70 371.61 C 1870.35 371.56 1869.67 371.48 1869.33 371.44 C 1868.06 367.81 1866.39 364.33 1865.39 360.61 C 1861.91 357.17 1862.82 351.53 1860.29 347.80 C 1859.69 344.69 1858.48 341.71 1858.50 338.50 C 1856.53 337.38 1857.67 334.86 1857.35 333.05 C 1855.97 324.45 1856.75 315.69 1856.58 307.02 C 1856.19 301.14 1857.32 295.35 1857.48 289.49 C 1859.13 288.61 1858.43 286.59 1858.75 285.08 C 1860.25 277.60 1863.32 270.84 1865.33 263.51 C 1865.67 263.51 1866.37 263.52 1866.72 263.53 C 1866.73 260.66 1868.43 258.19 1869.27 255.52 C 1869.64 255.51 1870.37 255.50 1870.74 255.50 C 1870.48 252.87 1872.62 250.95 1873.28 248.54 C 1873.64 248.51 1874.36 248.44 1874.71 248.41 C 1875.79 244.99 1877.15 241.39 1879.98 239.02 C 1881.58 237.83 1881.96 235.72 1883.35 234.35 C 1888.33 229.68 1893.15 224.82 1898.01 220.02 C 1904.47 215.17 1910.43 209.52 1918.10 206.78 C 1918.46 206.77 1919.17 206.77 1919.53 206.76 C 1919.42 206.01 1919.37 205.25 1919.39 204.49 C 1924.13 203.02 1928.52 200.05 1933.56 199.75 C 1933.53 199.38 1933.48 198.65 1933.45 198.29 C 1936.22 198.34 1938.71 196.95 1941.34 196.19 C 1942.99 195.41 1945.26 196.20 1946.50 194.54 Z" />
<path fill="#1b1b1b" opacity="1.00" d=" M 269.23 203.19 C 277.06 197.09 288.76 194.64 297.40 200.49 C 307.19 206.94 310.05 219.88 309.21 230.91 C 314.60 224.91 320.98 218.99 329.17 217.46 C 333.88 217.07 339.04 216.98 342.99 220.01 C 350.80 225.22 353.04 235.22 353.35 244.02 C 353.43 262.64 345.58 281.21 332.07 294.05 C 326.38 298.62 319.65 303.04 311.99 302.41 C 306.46 302.42 301.67 298.76 298.60 294.41 C 294.15 288.01 293.37 279.83 293.73 272.24 C 293.42 272.30 292.78 272.42 292.47 272.48 C 286.73 280.26 277.76 286.10 268.03 287.17 C 260.17 287.70 252.40 283.16 248.79 276.20 C 246.70 272.81 246.27 268.80 244.87 265.15 C 241.81 242.29 250.75 217.46 269.23 203.19 M 273.88 208.91 C 258.19 220.98 250.31 241.52 251.76 261.01 C 252.41 267.80 254.65 275.52 261.24 278.81 C 266.98 281.51 273.74 279.30 278.54 275.63 C 278.55 275.32 278.59 274.69 278.61 274.37 C 269.61 272.32 266.43 259.87 272.02 253.03 C 274.35 250.46 277.36 248.12 280.99 248.07 C 286.52 247.48 291.99 250.84 294.10 255.96 C 298.40 251.28 299.35 244.31 301.23 238.35 C 302.62 229.24 302.81 219.22 297.91 211.05 C 295.48 207.49 291.49 204.51 287.01 204.60 C 282.26 204.20 277.71 206.30 273.88 208.91 M 319.17 231.17 C 309.02 240.75 303.05 254.22 301.34 267.92 C 301.00 275.90 300.42 284.77 305.38 291.59 C 309.31 297.35 318.84 295.97 322.70 291.25 C 318.73 290.01 315.39 286.76 314.30 282.71 C 312.01 275.77 316.21 267.55 323.14 265.25 C 327.67 263.78 332.94 265.39 336.12 268.85 C 337.15 269.81 337.39 271.82 338.93 272.06 C 344.42 262.41 346.63 250.98 345.85 239.96 C 345.30 233.87 342.60 226.89 336.37 224.69 C 329.89 222.90 323.76 227.03 319.17 231.17 Z" />
<path fill="#1b1b1b" opacity="1.00" d=" M 1503.20 198.20 C 1519.73 197.11 1536.41 198.04 1553.00 197.70 C 1558.58 197.93 1564.30 197.06 1569.81 198.20 C 1570.20 275.43 1569.70 352.76 1570.06 430.02 C 1569.99 430.71 1569.83 432.09 1569.76 432.78 C 1567.57 433.54 1565.24 433.30 1562.99 433.33 C 1544.66 433.28 1526.33 433.28 1508.00 433.35 C 1506.33 433.26 1504.59 433.63 1503.05 432.96 C 1502.32 426.38 1502.98 419.64 1502.79 413.00 C 1502.76 342.99 1502.81 272.99 1502.76 202.98 C 1502.83 201.39 1502.53 199.70 1503.20 198.20 Z" />
<path fill="#1b1b1b" opacity="1.00" d=" M 2232.24 198.18 C 2237.08 197.18 2242.08 197.92 2247.00 197.69 C 2261.33 197.72 2275.66 197.74 2289.99 197.72 C 2292.89 197.73 2295.86 197.48 2298.73 198.25 C 2298.57 276.41 2298.61 354.58 2298.71 432.74 C 2293.24 433.98 2287.55 433.01 2282.00 433.31 C 2266.99 433.27 2251.98 433.36 2236.98 433.33 C 2235.38 433.21 2233.67 433.61 2232.27 432.80 C 2231.70 389.21 2232.32 345.59 2232.16 302.00 C 2232.31 267.39 2231.88 232.78 2232.24 198.18 Z" />
<path fill="#1b1b1b" opacity="1.00" d=" M 1628.00 283.94 C 1636.26 283.17 1644.67 283.84 1653.00 283.61 C 1686.33 283.61 1719.66 283.61 1753.00 283.61 C 1771.41 283.74 1789.85 283.35 1808.25 283.81 C 1808.67 297.86 1808.32 311.94 1808.43 326.00 C 1808.30 330.71 1808.69 335.44 1808.21 340.14 C 1783.49 340.64 1758.73 340.21 1734.00 340.35 C 1700.33 340.37 1666.66 340.32 1633.00 340.37 C 1631.33 340.27 1629.57 340.68 1628.04 339.97 C 1627.66 321.33 1627.81 302.60 1628.00 283.94 Z" />
<path fill="#1b1b1b" opacity="1.00" d=" M 351.32 299.35 C 354.42 298.37 358.41 300.48 358.35 303.98 C 358.80 308.34 352.83 311.73 349.65 308.40 C 346.31 306.05 347.30 300.29 351.32 299.35 Z" />
<path fill="#1b1b1b" opacity="1.00" d=" M 336.40 316.62 C 333.01 314.00 334.64 307.40 339.17 307.31 C 342.05 306.63 344.96 309.14 345.03 312.03 C 345.56 314.25 343.89 316.04 342.57 317.58 C 340.49 317.73 338.10 318.18 336.40 316.62 Z" />
<path fill="#1b1b1b" opacity="1.00" d=" M 364.36 309.27 C 368.06 306.99 373.33 310.69 372.25 314.98 C 371.68 319.07 366.02 320.62 363.24 317.74 C 360.73 315.47 361.18 310.68 364.36 309.27 Z" />
<path fill="#1b1b1b" opacity="1.00" d=" M 352.36 319.39 C 354.13 319.24 356.35 318.80 357.71 320.27 C 360.04 322.15 359.97 325.97 358.22 328.21 C 355.41 330.48 349.88 329.82 349.08 325.82 C 348.17 323.15 349.66 320.21 352.36 319.39 Z" />
<path fill="#1b1b1b" opacity="1.00" d=" M 389.23 453.99 C 391.09 452.95 392.79 454.86 394.39 455.58 C 402.78 460.58 407.79 469.66 409.99 478.91 C 410.88 481.79 406.62 483.01 405.71 480.30 C 404.13 475.72 402.86 470.93 400.12 466.86 C 397.17 463.10 393.44 460.01 389.19 457.83 C 387.39 457.21 387.47 454.60 389.23 453.99 Z" />
</g>
<g id="#a8a8a84b">
<path fill="#a8a8a8" opacity="0.29" d=" M 1198.38 296.18 L 1199.33 295.91 C 1199.84 302.81 1199.28 309.75 1199.64 316.65 C 1201.67 320.93 1199.44 325.82 1201.38 330.12 C 1201.40 336.35 1203.68 342.25 1204.65 348.35 C 1208.92 350.56 1206.09 357.37 1210.48 359.68 C 1211.47 361.76 1211.87 364.11 1213.06 366.13 C 1215.49 371.42 1219.76 375.51 1222.30 380.75 C 1222.71 382.54 1226.33 382.61 1225.11 384.79 C 1223.10 385.94 1221.64 388.04 1219.28 388.45 C 1219.26 386.53 1221.65 385.82 1221.99 384.04 C 1221.41 380.76 1218.16 379.15 1216.81 376.28 C 1214.05 372.54 1212.90 367.80 1209.55 364.50 C 1207.70 360.89 1207.32 356.50 1204.58 353.38 C 1203.32 345.73 1199.17 338.87 1199.34 331.04 C 1199.68 328.69 1197.15 327.22 1197.47 324.93 C 1197.82 315.35 1196.58 305.63 1198.38 296.18 Z" />
</g>
</svg>
