<?xml version="1.0" encoding="UTF-8" ?>
<!DOCTYPE svg PUBLIC "-//W3C//DTD SVG 1.1//EN" "http://www.w3.org/Graphics/SVG/1.1/DTD/svg11.dtd">
<svg width="2342pt" height="601pt" viewBox="0 0 2342 601" version="1.1" xmlns="http://www.w3.org/2000/svg">
<g id="#ffffffff">
<path fill="#ffffff" opacity="1.00" d=" M 253.63 41.63 C 263.85 31.22 278.42 25.33 292.99 25.46 C 301.75 25.69 310.33 27.62 318.90 29.32 C 323.89 30.24 328.90 31.39 333.53 33.51 C 339.33 36.68 343.68 42.44 344.76 49.01 C 345.94 56.29 344.08 64.42 338.61 69.61 C 334.49 74.34 328.06 76.27 321.98 76.53 C 311.27 75.50 301.78 70.01 291.81 66.44 C 286.82 64.75 281.21 65.92 276.96 68.91 C 273.06 71.15 271.12 75.46 269.39 79.40 C 263.36 94.58 257.00 109.62 250.88 124.76 C 247.30 133.43 243.28 141.94 240.32 150.84 C 250.95 150.57 260.29 156.19 269.72 160.28 C 281.97 165.66 294.12 171.25 306.30 176.78 C 311.90 162.84 317.20 148.77 322.93 134.87 C 326.71 125.23 330.66 115.42 337.32 107.35 C 347.11 95.75 361.79 88.13 377.06 87.80 C 386.82 87.04 396.57 89.46 405.39 93.55 C 412.21 96.74 419.61 98.85 425.89 103.10 C 436.43 110.56 437.45 127.48 428.69 136.68 C 423.64 142.44 415.48 144.88 408.02 143.77 C 402.26 142.91 397.53 139.28 392.65 136.39 C 387.45 133.31 382.92 129.15 377.37 126.68 C 372.32 124.35 366.44 126.17 362.00 129.01 C 358.10 131.50 356.09 135.81 353.39 139.39 C 348.52 146.55 343.48 153.60 338.89 160.94 C 334.25 169.06 328.27 176.37 323.87 184.62 C 339.74 191.52 355.43 198.84 371.29 205.76 C 388.36 213.79 405.86 220.88 422.89 229.00 C 440.89 236.18 456.30 250.66 462.81 269.11 C 464.85 275.61 467.71 282.08 467.08 289.05 C 468.62 299.00 465.47 308.81 463.26 318.41 C 461.93 326.91 455.87 333.43 451.58 340.57 C 447.62 346.96 440.96 350.70 435.18 355.20 C 423.24 363.50 408.48 367.42 393.98 366.65 C 382.62 367.04 371.83 362.92 361.63 358.36 C 341.19 349.06 320.57 340.14 300.15 330.79 C 299.12 330.61 297.31 328.81 296.69 330.38 C 292.74 345.20 289.31 360.17 285.44 375.01 C 284.77 376.62 286.24 377.79 286.94 379.07 C 291.54 385.93 292.48 394.73 290.82 402.69 C 289.12 411.87 283.09 421.07 273.58 423.45 C 272.81 427.99 271.05 432.30 270.23 436.83 C 270.65 437.99 272.05 438.34 272.95 439.07 C 285.35 446.08 298.93 451.22 313.10 453.06 C 325.44 455.47 338.06 453.88 350.51 454.71 C 366.46 455.76 382.09 463.29 391.80 476.18 C 398.03 484.59 403.77 494.73 402.41 505.58 C 401.90 509.81 399.06 513.09 395.87 515.67 C 398.45 516.08 400.92 517.05 402.78 518.95 C 404.89 515.38 409.10 514.13 413.01 513.96 C 416.68 513.89 420.31 513.27 423.98 513.01 C 426.53 512.95 428.60 514.67 430.57 516.08 C 432.09 514.08 433.89 511.85 436.63 511.74 C 441.74 511.18 446.88 510.56 452.02 510.43 C 456.39 510.47 458.88 514.76 459.67 518.55 C 463.29 518.58 467.86 517.25 470.60 520.39 C 473.55 523.01 473.74 527.27 474.02 530.94 C 473.91 536.75 474.79 542.51 474.60 548.33 C 502.33 548.66 530.08 548.09 557.82 548.41 C 560.89 548.31 561.21 551.82 562.27 553.91 C 560.69 552.87 559.04 551.68 557.06 551.78 C 528.45 551.53 499.84 552.07 471.24 551.64 C 471.06 544.80 470.67 537.96 470.49 531.12 C 470.19 527.91 470.04 523.80 466.78 522.10 C 463.36 521.61 459.88 522.04 456.43 521.93 C 455.74 519.24 455.78 515.41 452.72 514.23 C 448.80 513.65 444.86 514.68 440.94 514.83 C 438.61 515.11 435.67 514.94 434.24 517.19 C 432.95 519.40 433.47 522.13 433.10 524.57 C 431.79 524.26 429.49 525.01 429.11 523.18 C 428.09 520.65 427.51 516.71 424.02 516.74 C 418.94 517.22 413.67 516.91 408.77 518.52 C 404.92 519.60 406.08 524.40 405.68 527.38 C 404.45 527.11 402.57 527.85 401.85 526.51 C 400.81 524.02 400.57 520.30 397.31 519.71 C 393.87 519.23 390.39 520.11 386.94 520.25 C 384.21 520.61 380.79 520.48 378.96 522.92 C 378.20 525.12 378.22 527.49 377.82 529.78 C 376.65 529.84 375.50 529.90 374.34 529.96 C 373.42 527.25 373.17 523.01 369.68 522.46 C 364.60 522.36 359.52 523.19 354.48 523.71 C 350.43 524.60 350.77 529.50 350.03 532.69 C 349.30 532.68 347.86 532.68 347.14 532.68 C 346.11 530.01 345.91 526.23 342.73 525.20 C 338.75 524.71 334.73 525.51 330.75 525.78 C 328.45 526.11 325.58 525.97 324.05 528.05 C 323.00 530.43 323.41 533.14 323.11 535.67 C 318.99 536.62 313.05 535.16 310.73 539.69 C 309.49 543.55 310.74 547.70 310.18 551.67 C 303.18 551.96 296.17 551.93 289.17 551.70 C 288.37 547.92 288.09 544.00 286.58 540.41 C 283.40 532.35 275.80 526.06 267.15 524.95 C 262.22 524.09 257.20 524.64 252.24 524.28 C 253.11 521.42 254.83 518.97 256.25 516.39 C 260.46 508.68 262.69 499.76 262.03 490.97 C 261.86 488.65 261.69 486.33 261.78 484.01 C 268.08 485.39 273.96 488.15 280.24 489.61 C 289.70 492.15 299.42 493.61 309.16 494.49 C 317.43 495.10 325.68 494.03 333.95 493.98 C 335.61 497.20 337.28 500.52 339.98 503.02 C 343.17 506.19 347.67 507.50 352.00 508.25 C 356.90 508.40 358.94 514.47 364.00 514.35 C 369.37 515.41 373.40 511.36 376.89 507.97 C 379.95 510.38 382.88 513.55 387.01 513.90 C 392.54 514.94 398.03 510.36 398.85 504.97 C 399.84 498.56 397.33 492.27 394.29 486.76 C 387.74 474.33 376.30 464.22 362.57 460.63 C 351.07 456.79 338.82 458.42 326.95 457.93 C 306.84 457.45 286.85 451.80 269.65 441.33 C 268.27 440.23 266.00 439.17 266.55 437.02 C 267.26 432.29 268.94 427.77 270.07 423.14 C 270.64 418.64 276.23 419.55 278.89 416.91 C 289.27 407.73 291.18 390.34 282.69 379.27 C 280.87 377.29 281.78 374.65 282.33 372.37 C 286.51 357.31 289.59 341.95 293.94 326.94 C 294.61 324.19 297.71 325.93 299.43 326.50 C 321.24 336.42 343.21 345.99 365.03 355.89 C 371.11 358.40 377.23 361.03 383.75 362.19 C 401.11 365.19 419.97 361.98 434.26 351.29 C 439.25 347.34 445.16 344.17 448.53 338.54 C 452.44 332.00 457.89 326.07 459.47 318.40 C 461.23 311.03 463.24 303.65 463.86 296.08 C 463.65 289.80 464.04 283.28 461.66 277.33 C 458.91 267.77 454.70 258.45 447.95 251.04 C 444.70 247.61 441.42 244.18 437.61 241.37 C 431.48 236.72 424.36 233.68 417.40 230.53 C 404.27 224.17 390.73 218.73 377.47 212.67 C 363.32 205.95 348.83 199.99 334.65 193.36 C 330.12 191.16 325.28 189.58 320.96 186.99 C 319.14 186.18 319.86 183.91 320.56 182.57 C 325.79 173.88 331.92 165.76 337.02 156.98 C 342.61 148.32 348.63 139.95 354.43 131.44 C 359.16 124.48 368.22 120.72 376.47 122.51 C 383.57 124.67 388.98 130.06 395.29 133.72 C 400.93 137.16 407.02 141.60 414.03 140.32 C 421.34 139.55 427.71 134.16 430.12 127.29 C 431.81 121.41 431.13 114.64 427.36 109.68 C 423.81 104.77 417.77 102.90 412.49 100.54 C 405.57 97.76 398.90 94.24 391.59 92.56 C 376.18 88.87 359.19 92.82 347.01 102.96 C 336.63 111.05 331.23 123.54 326.61 135.48 C 320.71 149.77 315.31 164.26 309.49 178.57 C 308.83 181.62 305.43 180.37 303.49 179.50 C 289.00 173.01 274.58 166.35 260.05 159.93 C 255.08 157.72 250.08 155.25 244.59 154.68 C 241.83 154.12 238.70 154.60 236.26 153.05 C 236.56 147.99 239.33 143.57 240.93 138.86 C 249.95 117.77 258.42 96.44 267.25 75.27 C 270.99 65.33 282.89 59.78 292.95 62.99 C 302.62 66.31 311.69 71.82 322.02 72.92 C 327.17 72.78 332.50 70.92 336.04 67.04 C 343.05 60.13 343.54 47.56 336.53 40.47 C 331.91 35.29 324.69 34.23 318.26 32.84 C 306.36 30.65 294.10 27.24 282.02 30.16 C 262.53 34.23 246.53 50.21 241.25 69.23 C 233.77 98.41 227.34 127.89 220.20 157.12 C 214.30 160.74 208.17 164.28 203.74 169.76 C 198.24 175.86 195.46 183.72 192.05 191.05 C 177.15 223.86 162.49 256.77 147.58 289.57 C 130.46 326.88 113.66 364.32 96.82 401.74 C 91.66 414.01 85.12 425.80 81.97 438.82 C 80.32 444.76 79.28 450.86 78.81 457.01 C 78.50 458.18 78.85 460.94 76.91 460.59 C 68.66 460.19 61.58 454.68 56.68 448.37 C 48.64 438.48 45.85 425.40 45.58 412.92 C 45.72 411.56 45.05 410.40 44.23 409.40 C 40.08 420.74 39.92 433.29 42.02 445.08 C 45.62 464.55 59.50 481.73 77.85 489.19 C 80.81 489.97 81.43 493.12 82.40 495.59 C 87.01 509.10 95.85 521.42 108.16 528.88 C 110.11 530.21 112.50 531.10 113.91 533.09 C 112.92 536.69 110.78 540.06 110.95 543.93 C 111.08 546.49 111.64 549.01 111.86 551.57 C 93.59 552.24 75.28 551.65 57.00 551.88 C 51.54 552.14 45.81 550.93 40.61 553.08 C 40.87 555.55 42.15 558.15 45.09 557.60 C 214.74 557.62 384.40 557.55 554.05 557.69 C 556.94 557.81 560.43 558.00 561.69 554.77 C 561.81 557.64 560.73 561.54 557.07 561.07 C 404.05 561.11 251.02 561.07 98.00 561.08 C 79.66 561.01 61.32 561.22 42.98 561.01 C 37.82 560.89 35.34 553.43 39.21 550.16 C 40.97 548.34 43.62 548.32 45.97 548.34 C 66.53 548.44 87.09 548.24 107.65 548.43 C 106.91 543.57 107.58 538.59 109.74 534.17 C 95.19 526.27 84.19 512.54 78.99 496.90 C 78.24 495.41 78.21 493.20 76.39 492.58 C 59.98 485.77 46.68 471.76 40.94 454.93 C 36.47 441.75 36.05 427.35 39.02 413.80 C 39.73 411.23 40.12 408.14 42.46 406.48 C 45.46 404.75 49.33 407.69 49.00 410.98 C 49.15 419.83 50.46 428.82 54.02 436.99 C 58.13 446.07 65.37 454.34 75.26 457.06 C 76.23 440.04 82.43 423.92 89.71 408.69 C 107.01 370.08 124.39 331.48 141.98 292.99 C 157.27 259.55 172.14 225.94 187.39 192.49 C 191.82 183.22 195.01 172.91 202.64 165.64 C 206.64 161.16 211.65 157.79 216.87 154.91 C 218.22 152.80 218.12 150.03 218.79 147.64 C 225.02 121.23 231.03 94.77 237.71 68.47 C 240.32 58.24 246.16 49.01 253.63 41.63 M 265.60 488.89 C 266.46 500.08 263.81 511.41 257.97 521.00 C 264.57 520.75 271.53 521.21 277.37 524.59 C 285.94 529.31 291.50 538.61 292.08 548.33 C 297.05 548.35 302.02 548.38 306.99 548.33 C 306.40 544.19 305.69 539.19 308.95 535.91 C 311.41 532.53 315.92 532.93 319.62 532.62 C 319.93 529.96 319.71 526.84 321.93 524.92 C 324.85 522.00 329.26 522.56 333.01 522.01 C 338.10 521.46 343.96 520.24 348.09 524.18 C 350.03 521.18 353.41 519.63 356.95 519.84 C 363.00 519.76 370.31 516.68 375.29 521.51 C 376.99 518.74 380.10 517.67 383.02 516.70 C 380.82 515.72 378.81 514.40 376.95 512.89 C 371.92 518.79 362.14 519.84 356.13 514.88 C 354.59 513.77 353.48 511.81 351.37 511.81 C 347.65 511.27 344.00 510.12 340.73 508.27 C 336.51 505.70 333.75 501.48 331.30 497.33 C 309.12 499.95 286.57 496.22 265.60 488.89 Z" />
<path fill="#ffffff" opacity="1.00" d=" M 1525.77 87.99 C 1537.50 85.41 1550.71 86.89 1560.40 94.50 C 1571.37 101.81 1577.48 115.04 1577.52 127.99 C 1576.70 135.10 1575.24 142.38 1571.18 148.44 C 1566.00 156.79 1557.44 162.37 1548.49 165.99 C 1546.02 166.54 1543.42 166.16 1541.00 166.88 C 1536.32 168.37 1531.68 166.07 1526.97 166.19 C 1519.96 164.48 1513.25 161.01 1508.04 155.95 C 1503.17 150.58 1499.34 144.24 1497.18 137.30 C 1494.63 126.93 1495.86 115.54 1501.38 106.27 C 1505.25 100.68 1510.25 95.92 1515.80 92.01 C 1518.91 90.23 1522.42 89.27 1525.77 87.99 Z" />
<path fill="#ffffff" opacity="1.00" d=" M 2253.74 87.93 C 2259.43 87.19 2265.28 85.37 2271.04 87.06 C 2287.91 88.72 2302.62 102.92 2305.48 119.56 C 2307.97 126.66 2305.58 134.10 2303.75 141.05 C 2301.88 146.78 2298.02 151.59 2293.97 155.94 C 2287.10 162.87 2277.46 165.97 2268.04 167.34 C 2250.25 168.36 2232.05 157.09 2226.44 139.89 C 2222.79 127.49 2224.51 113.00 2232.61 102.62 C 2238.16 95.93 2245.57 90.88 2253.74 87.93 Z" />
<path fill="#ffffff" opacity="1.00" d=" M 642.49 88.49 C 664.48 88.43 686.47 88.65 708.46 88.36 C 708.73 155.22 708.44 222.10 708.59 288.97 C 714.22 286.25 718.39 281.18 722.98 276.99 C 727.13 272.44 732.26 268.95 736.47 264.47 C 744.10 257.42 751.66 250.29 759.48 243.47 C 767.20 236.88 774.00 229.29 781.90 222.90 C 790.26 214.54 799.46 207.06 807.62 198.50 C 827.40 197.93 847.21 198.44 867.00 198.29 C 875.67 198.13 884.38 198.72 893.02 197.75 C 894.67 197.64 896.33 197.83 897.97 198.17 C 897.93 200.04 896.94 201.49 895.42 202.50 C 881.94 213.26 869.83 225.57 856.51 236.50 C 841.28 249.99 826.20 263.62 810.72 276.81 C 799.37 287.14 787.92 297.37 776.20 307.28 C 775.06 308.42 772.65 309.46 773.58 311.45 C 776.60 314.42 780.12 316.85 783.05 319.94 C 790.41 327.28 798.80 333.50 806.00 341.00 C 810.98 346.38 816.94 350.71 822.11 355.89 C 827.45 360.19 832.17 365.16 837.21 369.79 C 844.07 375.55 850.59 381.69 857.05 387.89 C 860.69 390.91 864.29 394.01 867.55 397.46 C 879.94 409.19 892.85 420.37 905.16 432.18 C 900.73 434.43 895.68 432.83 891.00 432.72 C 866.05 432.72 841.09 432.66 816.14 432.74 C 809.92 426.34 803.79 419.80 797.02 413.98 C 780.60 398.39 764.78 382.19 748.02 366.97 C 740.73 359.92 733.87 352.41 726.08 345.91 C 720.34 339.86 713.97 334.42 708.42 328.20 C 708.84 363.03 708.40 397.88 708.60 432.72 C 686.56 432.66 664.52 432.79 642.48 432.69 C 642.72 323.13 642.50 213.57 642.58 104.00 C 642.54 98.83 642.62 93.66 642.49 88.49 Z" />
<path fill="#ffffff" opacity="1.00" d=" M 2116.46 88.48 C 2138.46 88.49 2160.47 88.45 2182.48 88.53 C 2182.29 203.02 2182.43 317.51 2182.41 431.99 C 2181.36 433.29 2179.41 432.47 2178.02 432.74 C 2157.55 432.75 2137.07 432.54 2116.61 432.84 C 2116.26 318.06 2116.60 203.27 2116.46 88.48 Z" />
<path fill="#ffffff" opacity="1.00" d=" M 1418.82 154.11 C 1423.41 152.75 1428.28 153.77 1433.01 153.31 C 1439.85 152.48 1446.78 152.55 1453.67 152.90 C 1453.66 172.44 1453.54 191.99 1453.70 211.53 C 1442.37 211.55 1430.48 210.08 1419.78 214.67 C 1415.63 216.18 1413.15 220.02 1410.14 223.00 C 1413.06 226.68 1416.68 229.71 1419.85 233.17 C 1432.60 248.19 1442.55 265.99 1446.47 285.43 C 1446.71 285.49 1447.18 285.62 1447.42 285.69 C 1446.76 289.23 1448.62 292.45 1448.51 295.95 C 1448.31 299.70 1450.06 303.23 1449.65 307.00 C 1449.33 313.33 1450.36 319.79 1448.80 326.01 C 1448.10 338.67 1444.41 351.07 1438.75 362.43 C 1427.80 386.60 1407.63 405.65 1384.74 418.53 C 1370.93 425.00 1356.39 430.96 1341.01 431.76 C 1334.11 433.28 1327.02 432.55 1320.02 432.70 C 1308.58 431.59 1296.94 430.65 1286.11 426.48 C 1281.36 424.86 1276.63 423.14 1272.12 420.94 C 1270.87 420.37 1268.97 419.59 1267.98 420.98 C 1264.78 423.96 1263.37 428.21 1260.68 431.57 C 1258.43 435.09 1257.65 439.27 1257.04 443.33 C 1256.00 446.23 1257.36 449.13 1257.61 452.03 C 1258.77 458.41 1262.30 464.90 1268.54 467.51 C 1274.71 469.90 1281.39 470.88 1288.00 470.64 C 1296.34 470.52 1304.70 470.84 1313.03 470.20 C 1321.25 468.56 1329.72 470.28 1337.98 468.78 C 1349.64 468.32 1361.43 467.62 1373.01 469.40 C 1377.31 469.02 1381.39 470.47 1385.64 470.79 C 1395.98 473.36 1406.47 475.98 1415.88 481.15 C 1424.20 485.36 1431.41 491.46 1438.01 497.98 C 1445.24 504.73 1450.39 513.31 1455.29 521.80 C 1457.74 526.73 1460.12 531.74 1461.84 536.98 C 1463.08 539.95 1464.45 542.99 1464.45 546.28 C 1457.67 548.18 1451.28 551.33 1444.64 553.66 C 1430.17 558.99 1415.80 564.57 1401.34 569.92 C 1398.42 561.22 1395.34 552.39 1389.93 544.88 C 1382.65 535.64 1370.38 531.96 1359.00 532.37 C 1350.00 532.51 1340.97 532.04 1332.00 532.76 C 1327.41 533.98 1322.66 533.35 1317.99 533.59 C 1314.30 533.64 1310.75 534.95 1307.05 534.66 C 1302.65 534.28 1298.37 535.53 1294.01 535.47 C 1276.01 536.12 1257.48 536.79 1240.23 530.78 C 1236.57 529.84 1233.35 527.52 1229.57 527.18 C 1229.47 526.72 1229.40 526.27 1229.33 525.83 C 1223.37 524.20 1218.55 519.95 1213.67 516.35 C 1206.32 509.96 1199.35 502.84 1194.84 494.11 C 1188.68 482.03 1184.96 468.60 1185.62 455.00 C 1185.15 450.57 1186.89 446.37 1186.79 441.96 C 1190.42 425.87 1197.85 410.36 1209.41 398.43 C 1212.67 395.07 1215.75 391.50 1219.41 388.55 C 1221.29 387.17 1223.15 385.74 1224.95 384.24 C 1209.58 365.90 1200.02 342.50 1199.05 318.52 C 1198.01 310.93 1199.42 303.34 1199.33 295.74 C 1199.15 289.98 1201.14 284.62 1202.47 279.11 C 1208.26 258.61 1219.53 239.66 1235.02 225.02 C 1241.84 219.07 1248.57 212.79 1256.65 208.54 C 1276.33 197.05 1299.10 190.33 1322.00 191.19 C 1334.30 190.79 1346.69 192.18 1358.52 195.53 C 1359.44 195.67 1360.97 196.12 1361.52 195.04 C 1364.28 190.63 1366.30 185.74 1369.87 181.88 C 1381.27 166.19 1399.77 156.42 1418.82 154.11 M 1319.28 251.94 C 1316.63 252.78 1313.80 252.10 1311.15 252.76 C 1301.41 255.42 1291.77 259.45 1284.16 266.24 C 1275.68 273.70 1269.50 283.62 1266.05 294.34 C 1263.38 302.65 1264.45 311.45 1264.36 320.03 C 1266.62 335.73 1275.58 350.27 1288.42 359.54 C 1295.57 365.06 1304.38 367.74 1312.96 370.15 C 1322.90 370.83 1333.25 371.46 1342.77 367.88 C 1360.73 362.46 1375.48 347.70 1381.04 329.80 C 1384.29 321.26 1384.00 311.93 1383.33 302.96 C 1380.67 283.15 1367.39 265.05 1349.04 256.96 C 1343.34 254.60 1337.39 252.27 1331.14 252.30 C 1327.26 251.39 1323.18 251.09 1319.28 251.94 Z" />
<path fill="#ffffff" opacity="1.00" d=" M 210.31 172.31 C 219.09 163.36 232.44 158.83 244.80 161.33 C 251.13 162.39 256.73 165.69 262.52 168.24 C 274.55 173.59 286.66 178.76 298.56 184.38 C 338.21 202.15 377.88 219.84 417.53 237.60 C 420.17 238.23 418.26 241.07 417.73 242.65 C 401.23 278.60 385.44 314.86 368.99 350.82 C 340.17 337.49 310.99 324.93 282.10 311.76 C 280.01 310.90 277.75 309.49 275.44 310.31 C 273.17 311.65 273.00 315.33 275.45 316.61 C 279.44 318.83 283.75 320.44 287.97 322.21 C 286.30 332.66 282.71 342.72 280.48 353.06 C 268.96 348.78 257.89 343.33 246.63 338.40 C 215.00 324.67 183.78 309.97 152.06 296.45 C 167.47 260.96 183.81 225.85 199.58 190.51 C 202.44 184.08 205.27 177.38 210.31 172.31 M 267.54 204.56 C 254.30 215.58 246.36 232.24 244.66 249.26 C 243.88 259.05 244.40 269.61 249.93 278.07 C 254.31 284.75 262.82 288.58 270.70 286.82 C 280.02 285.19 287.42 278.62 293.58 271.85 C 293.45 278.66 294.03 285.74 297.14 291.92 C 300.15 297.81 306.10 302.74 313.01 302.52 C 322.40 302.38 330.46 296.21 336.48 289.49 C 347.30 276.64 353.80 259.90 353.31 243.02 C 352.72 235.22 351.02 226.57 344.67 221.32 C 340.14 217.19 333.49 216.61 327.73 217.86 C 320.22 219.72 314.32 225.20 309.34 230.85 C 309.77 222.87 308.34 214.63 304.29 207.66 C 300.78 201.61 294.15 197.19 287.04 197.23 C 279.86 196.89 273.01 200.13 267.54 204.56 M 351.34 299.34 C 348.09 300.25 346.20 304.66 348.65 307.35 C 350.71 310.64 356.27 310.31 357.76 306.65 C 360.26 302.67 355.49 297.79 351.34 299.34 M 338.38 307.42 C 335.02 308.20 333.34 312.77 335.48 315.52 C 337.52 318.93 343.42 318.53 344.74 314.68 C 346.57 310.83 342.57 305.89 338.38 307.42 M 364.38 309.24 C 360.64 310.93 360.74 316.86 364.43 318.57 C 367.70 320.62 372.55 317.88 372.34 314.00 C 372.59 310.09 367.71 307.16 364.38 309.24 M 352.40 319.42 C 349.50 320.17 347.85 323.96 349.35 326.58 C 351.12 331.29 359.49 330.26 359.55 325.01 C 360.25 321.06 355.95 318.13 352.40 319.42 Z" />
<path fill="#ffffff" opacity="1.00" d=" M 962.38 205.38 C 977.96 197.06 995.33 191.96 1013.01 191.21 C 1025.01 191.17 1037.17 190.70 1048.97 193.34 C 1061.31 195.56 1073.01 200.42 1084.21 205.96 C 1096.30 212.17 1106.68 221.19 1116.11 230.89 C 1130.36 244.55 1139.43 262.77 1145.22 281.44 C 1147.74 289.73 1149.78 298.28 1149.58 306.99 C 1150.60 315.62 1150.13 324.32 1150.22 333.00 C 1150.25 366.20 1150.16 399.40 1150.27 432.59 C 1128.62 432.90 1106.95 432.58 1085.30 432.75 C 1085.41 424.86 1085.32 416.97 1085.43 409.09 C 1082.78 412.90 1078.86 415.50 1075.27 418.34 C 1067.83 423.70 1059.58 428.20 1050.73 430.69 C 1050.64 430.88 1050.47 431.27 1050.38 431.47 C 1045.16 431.92 1040.35 434.58 1035.05 434.59 C 1029.85 436.20 1024.34 435.27 1019.00 435.65 C 1012.31 435.38 1005.47 436.19 998.94 434.51 C 981.00 432.31 964.24 424.42 949.15 414.72 C 928.93 400.03 912.33 379.75 904.05 355.98 C 900.18 346.42 898.21 336.22 897.24 325.99 C 897.39 313.60 896.24 301.03 899.16 288.87 C 900.70 278.99 904.65 269.70 908.75 260.65 C 916.64 243.15 929.91 228.68 944.58 216.57 C 950.25 212.45 955.86 208.12 962.38 205.38 M 1015.22 251.73 C 999.71 253.76 984.74 261.56 975.10 274.04 C 968.35 283.08 963.31 293.69 961.90 304.96 C 958.35 328.02 969.28 352.54 988.48 365.71 C 995.50 370.66 1003.83 373.10 1012.05 375.22 C 1019.04 375.82 1026.05 375.82 1033.05 375.32 C 1043.92 373.32 1054.62 369.23 1063.15 362.05 C 1071.41 355.62 1077.40 346.59 1080.89 336.79 C 1083.37 332.22 1084.04 327.00 1085.26 322.02 C 1085.52 316.67 1085.42 311.30 1085.32 305.95 C 1083.05 292.47 1077.54 279.08 1067.56 269.45 C 1054.45 255.30 1034.08 249.23 1015.22 251.73 Z" />
<path fill="#ffffff" opacity="1.00" d=" M 1938.27 197.51 C 1949.47 193.80 1961.18 191.45 1973.00 191.18 C 1983.75 191.24 1994.64 190.70 2005.23 193.00 C 2021.87 195.57 2037.40 202.81 2051.62 211.62 C 2065.61 221.91 2077.31 235.18 2085.98 250.21 C 2081.98 253.68 2077.09 255.85 2072.82 258.92 C 2064.79 264.54 2056.22 269.33 2048.17 274.92 C 2043.19 277.60 2038.88 281.34 2033.84 283.89 C 2029.62 276.25 2024.62 268.72 2017.47 263.53 C 2004.56 253.12 1987.14 249.40 1970.97 252.01 C 1951.40 254.50 1933.95 268.26 1926.23 286.32 C 1923.29 292.51 1921.66 299.23 1920.58 305.97 C 1920.47 311.31 1920.43 316.67 1920.59 322.02 C 1922.33 331.57 1925.19 341.12 1930.69 349.23 C 1936.25 357.21 1942.98 364.77 1951.88 369.06 C 1956.10 370.95 1960.33 373.14 1964.98 373.75 C 1966.71 374.02 1968.31 374.76 1970.01 375.26 C 1979.80 376.02 1989.92 376.39 1999.30 373.00 C 2014.03 368.57 2026.31 357.61 2033.56 344.19 C 2037.08 344.16 2039.64 346.85 2042.54 348.48 C 2050.09 353.43 2058.00 357.79 2065.68 362.54 C 2072.16 366.89 2078.76 371.13 2085.81 374.50 C 2085.82 377.77 2083.44 380.17 2081.87 382.81 C 2065.48 408.20 2039.13 427.53 2009.28 433.42 C 2005.84 434.56 2002.16 434.28 1998.73 435.41 C 1990.46 435.17 1982.23 437.26 1974.01 435.74 C 1950.14 435.94 1926.97 426.91 1907.19 413.91 C 1902.23 409.85 1897.17 405.90 1892.83 401.17 C 1885.50 394.39 1878.81 386.83 1873.96 378.06 C 1864.57 363.32 1859.00 346.23 1856.84 329.01 C 1856.09 323.41 1856.54 317.66 1856.35 312.00 C 1855.65 283.59 1866.32 255.29 1884.54 233.57 C 1894.65 222.87 1905.61 212.24 1919.19 206.14 C 1919.33 205.71 1919.50 205.28 1919.70 204.86 C 1925.91 202.50 1931.89 199.48 1938.27 197.51 Z" />
<path fill="#ffffff" opacity="1.00" d=" M 1503.30 198.31 C 1522.20 198.23 1541.10 198.33 1560.01 198.25 C 1563.23 197.97 1566.48 197.49 1569.68 198.40 C 1569.52 276.48 1569.63 354.57 1569.62 432.65 C 1547.51 433.03 1525.35 432.10 1503.28 433.22 C 1503.35 354.92 1503.32 276.61 1503.30 198.31 Z" />
<path fill="#ffffff" opacity="1.00" d=" M 2232.34 198.31 C 2254.41 198.23 2276.47 198.26 2298.54 198.32 C 2298.32 276.42 2298.48 354.52 2298.46 432.62 C 2276.44 432.82 2254.40 432.66 2232.38 432.71 C 2232.25 354.58 2232.46 276.45 2232.34 198.31 Z" />
<path fill="#ffffff" opacity="1.00" d=" M 276.34 207.37 C 281.94 203.92 290.06 202.97 295.11 207.89 C 301.44 213.67 302.35 222.93 302.06 231.00 C 301.33 239.81 299.17 248.83 294.28 256.30 C 291.76 249.60 283.53 246.17 277.01 249.09 C 269.29 252.41 266.86 263.47 272.04 269.94 C 273.79 272.48 276.63 273.82 279.39 274.97 C 275.76 277.58 271.66 280.15 267.01 279.92 C 259.70 280.59 254.26 273.76 252.89 267.22 C 249.57 253.44 252.78 238.69 259.17 226.26 C 263.31 218.78 268.99 211.86 276.34 207.37 Z" />
<path fill="#ffffff" opacity="1.00" d=" M 324.92 226.86 C 329.03 224.25 334.71 223.14 339.00 225.96 C 343.74 229.36 345.54 235.38 345.97 240.95 C 346.50 251.86 344.03 262.92 338.86 272.56 C 336.19 268.04 331.50 264.20 325.96 264.72 C 317.00 265.36 311.03 276.20 314.82 284.22 C 316.33 287.85 319.73 290.14 323.12 291.83 C 318.99 294.20 314.09 296.65 309.29 294.75 C 304.54 292.57 302.54 287.19 301.64 282.39 C 300.23 271.98 301.64 261.22 305.52 251.47 C 309.69 241.82 315.76 232.41 324.92 226.86 Z" />
<path fill="#ffffff" opacity="1.00" d=" M 1628.21 283.66 C 1688.34 283.37 1748.48 283.69 1808.62 283.50 C 1808.55 302.46 1808.65 321.43 1808.54 340.40 C 1748.45 340.18 1688.36 340.44 1628.27 340.27 C 1628.35 321.40 1628.50 302.52 1628.21 283.66 Z" />
<path fill="#ffffff" opacity="1.00" d=" M 94.37 423.50 C 110.70 386.73 127.52 350.18 143.97 313.47 C 184.64 331.26 225.06 349.60 265.68 367.53 C 265.77 369.87 265.81 372.23 265.82 374.58 C 257.16 378.74 253.18 388.82 253.20 397.97 C 253.01 406.27 256.71 414.96 264.00 419.34 C 263.15 424.02 261.70 428.57 260.65 433.20 C 259.63 432.63 258.63 432.04 257.81 431.21 C 246.55 420.00 237.84 406.15 233.08 390.97 C 232.51 389.36 232.07 387.48 230.53 386.51 C 228.89 386.09 226.76 386.57 225.95 388.19 C 224.95 389.87 225.91 391.79 226.35 393.49 C 233.70 416.61 249.52 437.22 270.64 449.35 C 285.88 458.35 303.49 462.44 320.94 464.28 C 333.04 465.52 345.36 463.10 357.32 465.81 C 365.37 467.55 372.84 471.59 379.01 477.00 C 385.04 482.49 388.86 489.92 391.77 497.43 C 392.91 500.53 393.51 504.64 390.82 507.15 C 386.13 509.36 381.36 504.46 381.22 499.91 C 380.88 495.87 383.95 491.28 380.85 487.75 C 378.99 487.13 375.76 486.95 375.53 489.59 C 374.52 494.25 374.10 499.22 371.38 503.31 C 369.89 505.47 367.90 508.21 364.92 507.86 C 362.12 508.11 361.21 504.97 359.80 503.19 C 358.74 500.96 355.99 501.63 354.02 501.51 C 349.45 501.77 344.64 499.65 342.36 495.56 C 340.36 492.85 341.14 489.26 339.77 486.31 C 330.85 486.76 321.97 488.64 313.00 487.97 C 279.87 486.94 246.75 473.39 223.94 449.05 C 215.56 440.46 208.66 430.44 203.15 419.81 C 201.48 416.83 196.27 418.60 196.65 421.99 C 197.23 424.01 198.28 425.85 199.27 427.70 C 210.94 448.33 228.24 465.72 248.85 477.43 C 244.61 488.53 239.34 499.43 231.54 508.49 C 226.28 514.41 220.78 520.30 213.95 524.43 C 208.53 523.99 203.11 523.56 197.67 523.84 C 203.17 515.89 207.13 506.71 207.60 496.96 C 208.64 480.66 201.88 463.23 188.05 453.92 C 174.14 443.55 154.26 443.00 139.20 451.20 C 137.30 452.04 136.03 454.62 137.47 456.42 C 138.78 458.73 142.05 457.97 143.96 456.86 C 155.21 450.98 169.36 451.35 180.42 457.51 C 190.02 462.54 196.75 472.17 199.28 482.58 C 203.34 497.65 197.98 514.18 186.96 524.95 C 184.60 526.43 185.23 530.67 188.18 530.85 C 197.03 532.02 206.20 529.42 214.90 532.07 C 222.60 534.69 227.38 542.84 226.90 550.83 C 192.31 551.41 157.65 551.14 123.03 550.80 C 119.02 551.03 116.75 546.50 117.44 542.99 C 118.00 537.76 121.92 533.95 125.03 530.05 C 126.67 528.37 125.97 524.92 123.58 524.37 C 121.31 524.00 119.71 525.98 118.04 527.15 C 106.27 521.51 96.55 511.65 91.20 499.74 C 84.70 486.22 83.88 470.69 85.57 456.00 C 86.88 444.80 89.72 433.78 94.37 423.50 Z" />
<path fill="#ffffff" opacity="1.00" d=" M 273.33 371.35 C 274.78 370.14 276.49 372.68 274.99 373.69 C 273.57 374.74 271.84 372.34 273.33 371.35 Z" />
<path fill="#ffffff" opacity="1.00" d=" M 268.39 381.37 C 272.40 379.23 277.29 381.95 279.04 385.80 C 282.81 393.76 281.96 404.23 275.72 410.74 C 273.67 412.94 270.18 414.10 267.40 412.63 C 262.36 410.27 260.59 404.21 260.31 399.07 C 259.83 392.44 262.43 384.84 268.39 381.37 Z" />
<path fill="#ffffff" opacity="1.00" d=" M 388.34 450.31 C 391.25 449.19 394.12 451.06 396.52 452.53 C 402.90 456.74 408.41 462.70 410.94 470.02 C 412.19 473.69 414.26 477.49 413.39 481.49 C 412.20 485.67 406.21 487.06 403.48 483.54 C 401.14 480.16 400.90 475.80 398.89 472.23 C 396.67 467.00 391.97 463.44 387.09 460.86 C 382.73 458.72 383.77 451.56 388.34 450.31 M 389.23 453.96 C 387.44 454.59 387.25 457.26 389.19 457.79 C 393.55 460.22 397.66 463.30 400.50 467.47 C 402.70 470.97 403.96 474.95 405.21 478.86 C 405.68 480.15 406.17 482.04 407.93 481.87 C 409.40 482.19 410.28 480.14 410.01 478.92 C 407.89 469.32 402.50 460.15 393.79 455.17 C 392.40 454.58 390.76 452.87 389.23 453.96 Z" />
<path fill="#ffffff" opacity="1.00" d=" M 226.42 523.39 C 239.05 513.14 247.27 498.68 254.02 484.14 C 256.22 491.44 255.87 499.44 253.90 506.77 C 251.95 514.03 246.89 519.77 242.26 525.47 C 240.29 527.18 241.63 530.61 244.22 530.53 C 251.75 531.22 259.34 530.39 266.87 531.10 C 276.27 532.33 283.30 541.83 282.09 551.19 C 273.08 551.88 264.03 551.31 255.00 551.48 C 248.01 551.34 240.98 551.84 234.02 551.13 C 233.54 546.69 233.12 542.09 230.87 538.14 C 228.86 534.17 225.35 531.32 222.58 527.92 C 222.92 525.92 225.15 524.84 226.42 523.39 Z" />
<path fill="#ffffff" opacity="1.00" d=" M 439.20 519.27 C 443.33 518.76 447.57 518.07 451.71 518.89 C 451.82 519.69 452.04 521.30 452.14 522.10 C 447.60 523.62 442.72 523.71 437.98 523.79 C 437.68 522.18 436.67 519.47 439.20 519.27 Z" />
<path fill="#ffffff" opacity="1.00" d=" M 410.25 522.29 C 414.88 521.84 419.47 520.71 424.15 521.13 C 424.06 522.54 425.30 524.55 423.86 525.57 C 419.26 526.26 414.57 526.69 409.93 526.26 C 410.01 524.93 410.12 523.60 410.25 522.29 Z" />
<path fill="#ffffff" opacity="1.00" d=" M 382.80 524.98 C 387.48 524.30 392.21 523.73 396.95 524.13 C 396.92 525.38 396.89 526.64 396.85 527.91 C 392.20 528.86 387.45 529.19 382.72 529.17 C 382.59 527.76 382.62 526.36 382.80 524.98 Z" />
<path fill="#ffffff" opacity="1.00" d=" M 354.92 527.89 C 359.76 526.89 364.93 525.86 369.80 527.18 C 369.45 528.63 369.68 530.65 367.85 531.14 C 363.67 531.73 359.44 532.18 355.22 531.82 C 355.11 530.50 355.01 529.19 354.92 527.89 Z" />
<path fill="#ffffff" opacity="1.00" d=" M 452.05 528.92 C 456.02 528.44 459.99 527.85 464.01 528.08 C 464.76 535.88 465.78 543.84 464.81 551.66 C 438.88 552.08 412.93 551.74 387.00 551.85 C 363.67 551.71 340.34 552.12 317.02 551.65 C 316.11 548.97 315.90 546.10 316.17 543.30 C 316.76 541.73 318.74 542.06 320.05 541.76 C 347.06 539.39 374.02 536.35 401.03 533.98 C 418.04 532.29 435.02 530.31 452.05 528.92 M 369.05 540.59 C 352.66 542.20 336.27 544.03 319.84 545.24 C 319.86 546.01 319.90 547.55 319.91 548.32 C 367.26 548.34 414.61 548.44 461.96 548.27 C 461.42 542.73 461.29 537.17 460.94 531.63 C 430.29 534.40 399.70 537.76 369.05 540.59 Z" />
<path fill="#ffffff" opacity="1.00" d=" M 327.87 530.40 C 332.62 530.03 337.51 528.61 342.23 529.89 C 341.78 531.08 342.44 533.50 340.65 533.71 C 336.44 534.39 332.16 534.84 327.89 534.71 C 327.70 533.27 327.67 531.82 327.87 530.40 Z" />
</g>
<g id="#1b1b1bff">
<path fill="#1b1b1b" opacity="1.00" d=" M 282.02 30.16 C 294.10 27.24 306.36 30.65 318.26 32.84 C 324.69 34.23 331.91 35.29 336.53 40.47 C 343.54 47.56 343.05 60.13 336.04 67.04 C 332.50 70.92 327.17 72.78 322.02 72.92 C 311.69 71.82 302.62 66.31 292.95 62.99 C 282.89 59.78 270.99 65.33 267.25 75.27 C 258.42 96.44 249.95 117.77 240.93 138.86 C 239.33 143.57 236.56 147.99 236.26 153.05 C 238.70 154.60 241.83 154.12 244.59 154.68 C 250.08 155.25 255.08 157.72 260.05 159.93 C 274.58 166.35 289.00 173.01 303.49 179.50 C 305.43 180.37 308.83 181.62 309.49 178.57 C 315.31 164.26 320.71 149.77 326.61 135.48 C 331.23 123.54 336.63 111.05 347.01 102.96 C 359.19 92.82 376.18 88.87 391.59 92.56 C 398.90 94.24 405.57 97.76 412.49 100.54 C 417.77 102.90 423.81 104.77 427.36 109.68 C 431.13 114.64 431.81 121.41 430.12 127.29 C 427.71 134.16 421.34 139.55 414.03 140.32 C 407.02 141.60 400.93 137.16 395.29 133.72 C 388.98 130.06 383.57 124.67 376.47 122.51 C 368.22 120.72 359.16 124.48 354.43 131.44 C 348.63 139.95 342.61 148.32 337.02 156.98 C 331.92 165.76 325.79 173.88 320.56 182.57 C 319.86 183.91 319.14 186.18 320.96 186.99 C 325.28 189.58 330.12 191.16 334.65 193.36 C 348.83 199.99 363.32 205.95 377.47 212.67 C 390.73 218.73 404.27 224.17 417.40 230.53 C 424.36 233.68 431.48 236.72 437.61 241.37 C 441.42 244.18 444.70 247.61 447.95 251.04 C 454.70 258.45 458.91 267.77 461.66 277.33 C 464.04 283.28 463.65 289.80 463.86 296.08 C 463.24 303.65 461.23 311.03 459.47 318.40 C 457.89 326.07 452.44 332.00 448.53 338.54 C 445.16 344.17 439.25 347.34 434.26 351.29 C 419.97 361.98 401.11 365.19 383.75 362.19 C 377.23 361.03 371.11 358.40 365.03 355.89 C 343.21 345.99 321.24 336.42 299.43 326.50 C 297.71 325.93 294.61 324.19 293.94 326.94 C 289.59 341.95 286.51 357.31 282.33 372.37 C 281.78 374.65 280.87 377.29 282.69 379.27 C 291.18 390.34 289.27 407.73 278.89 416.91 C 276.23 419.55 270.64 418.64 270.07 423.14 C 268.94 427.77 267.26 432.29 266.55 437.02 C 266.00 439.17 268.27 440.23 269.65 441.33 C 286.85 451.80 306.84 457.45 326.95 457.93 C 338.82 458.42 351.07 456.79 362.57 460.63 C 376.30 464.22 387.74 474.33 394.29 486.76 C 397.33 492.27 399.84 498.56 398.85 504.97 C 398.03 510.36 392.54 514.94 387.01 513.90 C 382.88 513.55 379.95 510.38 376.89 507.97 C 373.40 511.36 369.37 515.41 364.00 514.35 C 358.94 514.47 356.90 508.40 352.00 508.25 C 347.67 507.50 343.17 506.19 339.98 503.02 C 337.28 500.52 335.61 497.20 333.95 493.98 C 325.68 494.03 317.43 495.10 309.16 494.49 C 299.42 493.61 289.70 492.15 280.24 489.61 C 273.96 488.15 268.08 485.39 261.78 484.01 C 261.69 486.33 261.86 488.65 262.03 490.97 C 262.69 499.76 260.46 508.68 256.25 516.39 C 254.83 518.97 253.11 521.42 252.24 524.28 C 257.20 524.64 262.22 524.09 267.15 524.95 C 275.80 526.06 283.40 532.35 286.58 540.41 C 288.09 544.00 288.37 547.92 289.17 551.70 C 296.17 551.93 303.18 551.96 310.18 551.67 C 310.74 547.70 309.49 543.55 310.73 539.69 C 313.05 535.16 318.99 536.62 323.11 535.67 C 323.41 533.14 323.00 530.43 324.05 528.05 C 325.58 525.97 328.45 526.11 330.75 525.78 C 334.73 525.51 338.75 524.71 342.73 525.20 C 345.91 526.23 346.11 530.01 347.14 532.68 C 347.86 532.68 349.30 532.68 350.03 532.69 C 350.77 529.50 350.43 524.60 354.48 523.71 C 359.52 523.19 364.60 522.36 369.68 522.46 C 373.17 523.01 373.42 527.25 374.34 529.96 C 375.50 529.90 376.65 529.84 377.82 529.78 C 378.22 527.49 378.20 525.12 378.96 522.92 C 380.79 520.48 384.21 520.61 386.94 520.25 C 390.39 520.11 393.87 519.23 397.31 519.71 C 400.57 520.30 400.81 524.02 401.85 526.51 C 402.57 527.85 404.45 527.11 405.68 527.38 C 406.08 524.40 404.92 519.60 408.77 518.52 C 413.67 516.91 418.94 517.22 424.02 516.74 C 427.51 516.71 428.09 520.65 429.11 523.18 C 429.49 525.01 431.79 524.26 433.10 524.57 C 433.47 522.13 432.95 519.40 434.24 517.19 C 435.67 514.94 438.61 515.11 440.94 514.83 C 444.86 514.68 448.80 513.65 452.72 514.23 C 455.78 515.41 455.74 519.24 456.43 521.93 C 459.88 522.04 463.36 521.61 466.78 522.10 C 470.04 523.80 470.19 527.91 470.49 531.12 C 470.67 537.96 471.06 544.80 471.24 551.64 C 499.84 552.07 528.45 551.53 557.06 551.78 C 559.04 551.68 560.69 552.87 562.27 553.91 L 561.69 554.77 C 560.43 558.00 556.94 557.81 554.05 557.69 C 384.40 557.55 214.74 557.62 45.09 557.60 C 42.15 558.15 40.87 555.55 40.61 553.08 C 45.81 550.93 51.54 552.14 57.00 551.88 C 75.28 551.65 93.59 552.24 111.86 551.57 C 111.64 549.01 111.08 546.49 110.95 543.93 C 110.78 540.06 112.92 536.69 113.91 533.09 C 112.50 531.10 110.11 530.21 108.16 528.88 C 95.85 521.42 87.01 509.10 82.40 495.59 C 81.43 493.12 80.81 489.97 77.85 489.19 C 59.50 481.73 45.62 464.55 42.02 445.08 C 39.92 433.29 40.08 420.74 44.23 409.40 C 45.05 410.40 45.72 411.56 45.58 412.92 C 45.85 425.40 48.64 438.48 56.68 448.37 C 61.58 454.68 68.66 460.19 76.91 460.59 C 78.85 460.94 78.50 458.18 78.81 457.01 C 79.28 450.86 80.32 444.76 81.97 438.82 C 85.12 425.80 91.66 414.01 96.82 401.74 C 113.66 364.32 130.46 326.88 147.58 289.57 C 162.49 256.77 177.15 223.86 192.05 191.05 C 195.46 183.72 198.24 175.86 203.74 169.76 C 208.17 164.28 214.30 160.74 220.20 157.12 C 227.34 127.89 233.77 98.41 241.25 69.23 C 246.53 50.21 262.53 34.23 282.02 30.16 M 210.31 172.31 C 205.27 177.38 202.44 184.08 199.58 190.51 C 183.81 225.85 167.47 260.96 152.06 296.45 C 183.78 309.97 215.00 324.67 246.63 338.40 C 257.89 343.33 268.96 348.78 280.48 353.06 C 282.71 342.72 286.30 332.66 287.97 322.21 C 283.75 320.44 279.44 318.83 275.45 316.61 C 273.00 315.33 273.17 311.65 275.44 310.31 C 277.75 309.49 280.01 310.90 282.10 311.76 C 310.99 324.93 340.17 337.49 368.99 350.82 C 385.44 314.86 401.23 278.60 417.73 242.65 C 418.26 241.07 420.17 238.23 417.53 237.60 C 377.88 219.84 338.21 202.15 298.56 184.38 C 286.66 178.76 274.55 173.59 262.52 168.24 C 256.73 165.69 251.13 162.39 244.80 161.33 C 232.44 158.83 219.09 163.36 210.31 172.31 M 94.37 423.50 C 89.72 433.78 86.88 444.80 85.57 456.00 C 83.88 470.69 84.70 486.22 91.20 499.74 C 96.55 511.65 106.27 521.51 118.04 527.15 C 119.71 525.98 121.31 524.00 123.58 524.37 C 125.97 524.92 126.67 528.37 125.03 530.05 C 121.92 533.95 118.00 537.76 117.44 542.99 C 116.75 546.50 119.02 551.03 123.03 550.80 C 157.65 551.14 192.31 551.41 226.90 550.83 C 227.38 542.84 222.60 534.69 214.90 532.07 C 206.20 529.42 197.03 532.02 188.18 530.85 C 185.23 530.67 184.60 526.43 186.96 524.95 C 197.98 514.18 203.34 497.65 199.28 482.58 C 196.75 472.17 190.02 462.54 180.42 457.51 C 169.36 451.35 155.21 450.98 143.96 456.86 C 142.05 457.97 138.78 458.73 137.47 456.42 C 136.03 454.62 137.30 452.04 139.20 451.20 C 154.26 443.00 174.14 443.55 188.05 453.92 C 201.88 463.23 208.64 480.66 207.60 496.96 C 207.13 506.71 203.17 515.89 197.67 523.84 C 203.11 523.56 208.53 523.99 213.95 524.43 C 220.78 520.30 226.28 514.41 231.54 508.49 C 239.34 499.43 244.61 488.53 248.85 477.43 C 228.24 465.72 210.94 448.33 199.27 427.70 C 198.28 425.85 197.23 424.01 196.65 421.99 C 196.27 418.60 201.48 416.83 203.15 419.81 C 208.66 430.44 215.56 440.46 223.94 449.05 C 246.75 473.39 279.87 486.94 313.00 487.97 C 321.97 488.64 330.85 486.76 339.77 486.31 C 341.14 489.26 340.36 492.85 342.36 495.56 C 344.64 499.65 349.45 501.77 354.02 501.51 C 355.99 501.63 358.74 500.96 359.80 503.19 C 361.21 504.97 362.12 508.11 364.92 507.86 C 367.90 508.21 369.89 505.47 371.38 503.31 C 374.10 499.22 374.52 494.25 375.53 489.59 C 375.76 486.95 378.99 487.13 380.85 487.75 C 383.95 491.28 380.88 495.87 381.22 499.91 C 381.36 504.46 386.13 509.36 390.82 507.15 C 393.51 504.64 392.91 500.53 391.77 497.43 C 388.86 489.92 385.04 482.49 379.01 477.00 C 372.84 471.59 365.37 467.55 357.32 465.81 C 345.36 463.10 333.04 465.52 320.94 464.28 C 303.49 462.44 285.88 458.35 270.64 449.35 C 249.52 437.22 233.70 416.61 226.35 393.49 C 225.91 391.79 224.95 389.87 225.95 388.19 C 226.76 386.57 228.89 386.09 230.53 386.51 C 232.07 387.48 232.51 389.36 233.08 390.97 C 237.84 406.15 246.55 420.00 257.81 431.21 C 258.63 432.04 259.63 432.63 260.65 433.20 C 261.70 428.57 263.15 424.02 264.00 419.34 C 256.71 414.96 253.01 406.27 253.20 397.97 C 253.18 388.82 257.16 378.74 265.82 374.58 C 265.81 372.23 265.77 369.87 265.68 367.53 C 225.06 349.60 184.64 331.26 143.97 313.47 C 127.52 350.18 110.70 386.73 94.37 423.50 M 273.33 371.35 C 271.84 372.34 273.57 374.74 274.99 373.69 C 276.49 372.68 274.78 370.14 273.33 371.35 M 268.39 381.37 C 262.43 384.84 259.83 392.44 260.31 399.07 C 260.59 404.21 262.36 410.27 267.40 412.63 C 270.18 414.10 273.67 412.94 275.72 410.74 C 281.96 404.23 282.81 393.76 279.04 385.80 C 277.29 381.95 272.40 379.23 268.39 381.37 M 226.42 523.39 C 225.15 524.84 222.92 525.92 222.58 527.92 C 225.35 531.32 228.86 534.17 230.87 538.14 C 233.12 542.09 233.54 546.69 234.02 551.13 C 240.98 551.84 248.01 551.34 255.00 551.48 C 264.03 551.31 273.08 551.88 282.09 551.19 C 283.30 541.83 276.27 532.33 266.87 531.10 C 259.34 530.39 251.75 531.22 244.22 530.53 C 241.63 530.61 240.29 527.18 242.26 525.47 C 246.89 519.77 251.95 514.03 253.90 506.77 C 255.87 499.44 256.22 491.44 254.02 484.14 C 247.27 498.68 239.05 513.14 226.42 523.39 M 439.20 519.27 C 436.67 519.47 437.68 522.18 437.98 523.79 C 442.72 523.71 447.60 523.62 452.14 522.10 C 452.04 521.30 451.82 519.69 451.71 518.89 C 447.57 518.07 443.33 518.76 439.20 519.27 M 410.25 522.29 C 410.12 523.60 410.01 524.93 409.93 526.26 C 414.57 526.69 419.26 526.26 423.86 525.57 C 425.30 524.55 424.06 522.54 424.15 521.13 C 419.47 520.71 414.88 521.84 410.25 522.29 M 382.80 524.98 C 382.62 526.36 382.59 527.76 382.72 529.17 C 387.45 529.19 392.20 528.86 396.85 527.91 C 396.89 526.64 396.92 525.38 396.95 524.13 C 392.21 523.73 387.48 524.30 382.80 524.98 M 354.92 527.89 C 355.01 529.19 355.11 530.50 355.22 531.82 C 359.44 532.18 363.67 531.73 367.85 531.14 C 369.68 530.65 369.45 528.63 369.80 527.18 C 364.93 525.86 359.76 526.89 354.92 527.89 M 452.05 528.92 C 435.02 530.31 418.04 532.29 401.03 533.98 C 374.02 536.35 347.06 539.39 320.05 541.76 C 318.74 542.06 316.76 541.73 316.17 543.30 C 315.90 546.10 316.11 548.97 317.02 551.65 C 340.34 552.12 363.67 551.71 387.00 551.85 C 412.93 551.74 438.88 552.08 464.81 551.66 C 465.78 543.84 464.76 535.88 464.01 528.08 C 459.99 527.85 456.02 528.44 452.05 528.92 M 327.87 530.40 C 327.67 531.82 327.70 533.27 327.89 534.71 C 332.16 534.84 336.44 534.39 340.65 533.71 C 342.44 533.50 341.78 531.08 342.23 529.89 C 337.51 528.61 332.62 530.03 327.87 530.40 Z" />
<path fill="#1b1b1b" opacity="1.00" d=" M 267.54 204.56 C 273.01 200.13 279.86 196.89 287.04 197.23 C 294.15 197.19 300.78 201.61 304.29 207.66 C 308.34 214.63 309.77 222.87 309.34 230.85 C 314.32 225.20 320.22 219.72 327.73 217.86 C 333.49 216.61 340.14 217.19 344.67 221.32 C 351.02 226.57 352.72 235.22 353.31 243.02 C 353.80 259.90 347.30 276.64 336.48 289.49 C 330.46 296.21 322.40 302.38 313.01 302.52 C 306.10 302.74 300.15 297.81 297.14 291.92 C 294.03 285.74 293.45 278.66 293.58 271.85 C 287.42 278.62 280.02 285.19 270.70 286.82 C 262.82 288.58 254.31 284.75 249.93 278.07 C 244.40 269.61 243.88 259.05 244.66 249.26 C 246.36 232.24 254.30 215.58 267.54 204.56 M 276.34 207.37 C 268.99 211.86 263.31 218.78 259.17 226.26 C 252.78 238.69 249.57 253.44 252.89 267.22 C 254.26 273.76 259.70 280.59 267.01 279.92 C 271.66 280.15 275.76 277.58 279.39 274.97 C 276.63 273.82 273.79 272.48 272.04 269.94 C 266.86 263.47 269.29 252.41 277.01 249.09 C 283.53 246.17 291.76 249.60 294.28 256.30 C 299.17 248.83 301.33 239.81 302.06 231.00 C 302.35 222.93 301.44 213.67 295.11 207.89 C 290.06 202.97 281.94 203.92 276.34 207.37 M 324.92 226.86 C 315.76 232.41 309.69 241.82 305.52 251.47 C 301.64 261.22 300.23 271.98 301.64 282.39 C 302.54 287.19 304.54 292.57 309.29 294.75 C 314.09 296.65 318.99 294.20 323.12 291.83 C 319.73 290.14 316.33 287.85 314.82 284.22 C 311.03 276.20 317.00 265.36 325.96 264.72 C 331.50 264.20 336.19 268.04 338.86 272.56 C 344.03 262.92 346.50 251.86 345.97 240.95 C 345.54 235.38 343.74 229.36 339.00 225.96 C 334.71 223.14 329.03 224.25 324.92 226.86 Z" />
<path fill="#1b1b1b" opacity="1.00" d=" M 351.34 299.34 C 355.49 297.79 360.26 302.67 357.76 306.65 C 356.27 310.31 350.71 310.64 348.65 307.35 C 346.20 304.66 348.09 300.25 351.34 299.34 Z" />
<path fill="#1b1b1b" opacity="1.00" d=" M 338.38 307.42 C 342.57 305.89 346.57 310.83 344.74 314.68 C 343.42 318.53 337.52 318.93 335.48 315.52 C 333.34 312.77 335.02 308.20 338.38 307.42 Z" />
<path fill="#1b1b1b" opacity="1.00" d=" M 364.38 309.24 C 367.71 307.16 372.59 310.09 372.34 314.00 C 372.55 317.88 367.70 320.62 364.43 318.57 C 360.74 316.86 360.64 310.93 364.38 309.24 Z" />
<path fill="#1b1b1b" opacity="1.00" d=" M 352.40 319.42 C 355.95 318.13 360.25 321.06 359.55 325.01 C 359.49 330.26 351.12 331.29 349.35 326.58 C 347.85 323.96 349.50 320.17 352.40 319.42 Z" />
<path fill="#1b1b1b" opacity="1.00" d=" M 389.23 453.96 C 390.76 452.87 392.40 454.58 393.79 455.17 C 402.50 460.15 407.89 469.32 410.01 478.92 C 410.28 480.14 409.40 482.19 407.93 481.87 C 406.17 482.04 405.68 480.15 405.21 478.86 C 403.96 474.95 402.70 470.97 400.50 467.47 C 397.66 463.30 393.55 460.22 389.19 457.79 C 387.25 457.26 387.44 454.59 389.23 453.96 Z" />
</g>
<g id="#a8a8a84b">
<path fill="#a8a8a8" opacity="0.29" d=" M 1197.80 302.14 C 1197.91 299.95 1198.05 297.61 1199.33 295.74 C 1199.42 303.34 1198.01 310.93 1199.05 318.52 C 1200.02 342.50 1209.58 365.90 1224.95 384.24 C 1223.15 385.74 1221.29 387.17 1219.41 388.55 C 1220.24 386.88 1221.34 385.38 1222.55 383.96 C 1219.97 379.77 1216.38 376.25 1214.38 371.71 C 1212.73 367.91 1209.60 364.93 1208.34 360.96 C 1206.97 356.78 1204.58 353.01 1203.53 348.71 C 1202.09 343.17 1199.93 337.75 1199.45 332.00 C 1199.28 329.26 1197.80 326.79 1197.80 324.03 C 1197.69 316.73 1197.58 309.43 1197.80 302.14 Z" />
</g>
</svg>
